<svg xmlns="http://www.w3.org/2000/svg" width="342" height="264" viewBox="0 0 342 264" role="img"><rect width="342" height="264" fill="#fcfcfd" rx="16" ry="16"/><text x="16" y="30" font-family="Menlo, Consolas, monospace" font-size="18" fill="#0f172a">auth_demo_v1 bitmask heatmap</text><text x="16" y="48" font-family="Menlo, Consolas, monospace" font-size="12" fill="#0f172a" opacity="0.7">5 cases · 3 rule bits</text><text x="247.0" y="80" text-anchor="middle" font-family="Menlo, Consolas, monospace" font-size="10" fill="#0f172a">0</text><g transform="translate(254,88) rotate(-45)"><text text-anchor="end" font-family="Menlo, Consolas, monospace" font-size="10" fill="#0f172a">Archived resources are read-only.</text></g><text x="273.0" y="80" text-anchor="middle" font-family="Menlo, Consolas, monospace" font-size="10" fill="#0f172a">1</text><g transform="translate(280,88) rotate(-45)"><text text-anchor="end" font-family="Menlo, Consolas, monospace" font-size="10" fill="#0f172a">Too many failed attempts.</text></g><text x="299.0" y="80" text-anchor="middle" font-family="Menlo, Consolas, monospace" font-size="10" fill="#0f172a">2</text><g transform="translate(306,88) rotate(-45)"><text text-anchor="end" font-family="Menlo, Consolas, monospace" font-size="10" fill="#0f172a">Viewer role is read-only.</text></g><text x="16" y="129" font-family="Menlo, Consolas, monospace" font-size="11" fill="#0f172a">allow_read_active_editor</text><text x="202" y="129" text-anchor="end" font-family="Menlo, Consolas, monospace" font-size="10" fill="#0f172a" opacity="0.7">0x0</text><rect x="236" y="114" width="22" height="22" rx="6" ry="6" fill="#e2e8f0" stroke="#94a3b8" stroke-width="1.25"/><rect x="262" y="114" width="22" height="22" rx="6" ry="6" fill="#e2e8f0" stroke="#94a3b8" stroke-width="1.25"/><rect x="288" y="114" width="22" height="22" rx="6" ry="6" fill="#e2e8f0" stroke="#94a3b8" stroke-width="1.25"/><text x="16" y="155" font-family="Menlo, Consolas, monospace" font-size="11" fill="#0f172a">deny_archived_write</text><text x="202" y="155" text-anchor="end" font-family="Menlo, Consolas, monospace" font-size="10" fill="#0f172a" opacity="0.7">0x1</text><rect x="236" y="140" width="22" height="22" rx="6" ry="6" fill="#0f766e" stroke="#0f172a" stroke-width="1.25"/><rect x="262" y="140" width="22" height="22" rx="6" ry="6" fill="#e2e8f0" stroke="#94a3b8" stroke-width="1.25"/><rect x="288" y="140" width="22" height="22" rx="6" ry="6" fill="#e2e8f0" stroke="#94a3b8" stroke-width="1.25"/><text x="16" y="181" font-family="Menlo, Consolas, monospace" font-size="11" fill="#0f172a">deny_failed_attempts_only</text><text x="202" y="181" text-anchor="end" font-family="Menlo, Consolas, monospace" font-size="10" fill="#0f172a" opacity="0.7">0x2</text><rect x="236" y="166" width="22" height="22" rx="6" ry="6" fill="#e2e8f0" stroke="#94a3b8" stroke-width="1.25"/><rect x="262" y="166" width="22" height="22" rx="6" ry="6" fill="#0f766e" stroke="#0f172a" stroke-width="1.25"/><rect x="288" y="166" width="22" height="22" rx="6" ry="6" fill="#e2e8f0" stroke="#94a3b8" stroke-width="1.25"/><text x="16" y="207" font-family="Menlo, Consolas, monospace" font-size="11" fill="#0f172a">deny_viewer_delete_only</text><text x="202" y="207" text-anchor="end" font-family="Menlo, Consolas, monospace" font-size="10" fill="#0f172a" opacity="0.7">0x4</text><rect x="236" y="192" width="22" height="22" rx="6" ry="6" fill="#e2e8f0" stroke="#94a3b8" stroke-width="1.25"/><rect x="262" y="192" width="22" height="22" rx="6" ry="6" fill="#e2e8f0" stroke="#94a3b8" stroke-width="1.25"/><rect x="288" y="192" width="22" height="22" rx="6" ry="6" fill="#0f766e" stroke="#0f172a" stroke-width="1.25"/><text x="16" y="233" font-family="Menlo, Consolas, monospace" font-size="11" fill="#0f172a">deny_multiple_rules</text><text x="202" y="233" text-anchor="end" font-family="Menlo, Consolas, monospace" font-size="10" fill="#0f172a" opacity="0.7">0x7</text><rect x="236" y="218" width="22" height="22" rx="6" ry="6" fill="#0f766e" stroke="#0f172a" stroke-width="1.25"/><rect x="262" y="218" width="22" height="22" rx="6" ry="6" fill="#0f766e" stroke="#0f172a" stroke-width="1.25"/><rect x="288" y="218" width="22" height="22" rx="6" ry="6" fill="#0f766e" stroke="#0f172a" stroke-width="1.25"/></svg>
