<?xml version="1.0" encoding="utf-8" ?><svg xmlns="http://www.w3.org/2000/svg" xmlns:xlink="http://www.w3.org/1999/xlink" width="1152" height="896" viewBox="0 0 1152 896"><defs><linearGradient id="gradient_0" gradientUnits="userSpaceOnUse" x1="661.66876" y1="688.62939" x2="496.56174" y2="246.11055"><stop offset="0" stop-color="#DCD4B8"/><stop offset="1" stop-color="#F9FCF2"/></linearGradient></defs><path fill="url(#gradient_0)" d="M281.705 242.09C283.438 234.488 284.171 222.766 285.227 214.654C293.756 149.102 348.489 96.9375 415.316 96.0118C427.657 95.8408 439.962 97.8072 452.269 98.406C453.24 98.4533 455.556 98.2448 456.476 97.7518C461.543 93.0708 466.777 84.8738 471.079 79.5535C474.344 75.5178 477.792 71.6333 481.412 67.9123C509.23 39.4964 544.94 23.5093 584.799 23.1813C626.125 22.5501 665.869 39.0466 694.6 68.7555C699.109 73.4765 703.305 78.4864 707.163 83.7533C710.153 87.7584 713.797 93.3163 717.299 96.6633L717.835 97.1665C725.369 99.2913 738.41 96.8784 746.56 96.2987C795.531 92.8157 844.746 115.906 870.096 158.572C884.667 183.097 889.167 206.826 892.275 234.649C897.2 230.247 906.447 220.843 912.397 219.867C915.518 220.962 917.804 225.999 919.17 228.867C926.075 243.368 927.933 245.955 922.66 261.526C922.491 262.017 922.312 262.504 922.122 262.987C948.481 279.679 964.688 307.063 971.889 337.008C980.242 371.745 969.794 412.549 950.63 442.193C924.704 482.297 874.079 523.616 832.384 546.449C831.205 548.167 831.216 548.301 830.752 550.376C830.964 551.121 830.982 551.478 831.373 552.107L831.5 553.039C835.144 551.859 847.067 541.878 852.365 540.306C855.625 539.339 856.797 537.333 860.738 538.94C865.192 542.903 864.246 556.411 866.958 559.854C890.361 566.108 914.413 573.565 935.35 586.02C956.89 598.833 962.97 611.026 956.172 634.973C937.293 701.478 864.04 769.338 793.51 772.535L792.977 772.882C786.838 776.924 781.236 782.031 774.651 786.335C737.611 810.546 702.847 812.61 659.534 806.986C629.217 826.988 599.855 838.024 562.979 830.637C540.381 826.11 528.954 818.285 509.684 807.281C457.352 813.028 424.468 810.556 381.921 776.432C380.471 775.276 379.033 774.104 377.607 772.917C323.973 767.949 285.742 744.576 251.404 703.562C233.569 682.259 211.945 645.158 213.272 616.976C214.692 586.82 272.347 569.952 295.5 563.724C297.463 562.147 302.2 541.495 304.453 537.445C307.921 531.209 311.348 533.617 316.649 536.725C322.096 539.912 327.651 543.082 332.432 547.26C334.792 549.323 336.077 553.437 338.146 554.628L340.23 552.621C341.199 550.112 339.829 548.75 338.501 546.697C303.527 526.6 263.401 495.931 237.859 464.434C212.927 433.692 196.77 391.076 201.362 351.074C205.036 318.653 221.381 288.999 246.833 268.58C246.063 265.298 243.248 254.182 243.62 251.358C244.345 245.857 251.661 227.989 255.781 224.562C262.326 222.78 277.889 236.767 281.705 242.09Z"/><path fill="#50D1DD" d="M281.705 242.09C283.438 234.488 284.171 222.766 285.227 214.654C293.756 149.102 348.489 96.9375 415.316 96.0118C427.657 95.8408 439.962 97.8072 452.269 98.406C453.24 98.4533 455.556 98.2448 456.476 97.7518C461.543 93.0708 466.777 84.8738 471.079 79.5535C474.344 75.5178 477.792 71.6333 481.412 67.9123C509.23 39.4964 544.94 23.5093 584.799 23.1813C626.125 22.5501 665.869 39.0466 694.6 68.7555C699.109 73.4765 703.305 78.4864 707.163 83.7533C710.153 87.7584 713.797 93.3163 717.299 96.6633L717.835 97.1665C725.369 99.2913 738.41 96.8784 746.56 96.2987C795.531 92.8157 844.746 115.906 870.096 158.572C884.667 183.097 889.167 206.826 892.275 234.649C897.2 230.247 906.447 220.843 912.397 219.867C915.518 220.962 917.804 225.999 919.17 228.867C926.075 243.368 927.933 245.955 922.66 261.526C922.491 262.017 922.312 262.504 922.122 262.987C948.481 279.679 964.688 307.063 971.889 337.008C980.242 371.745 969.794 412.549 950.63 442.193C924.704 482.297 874.079 523.616 832.384 546.449C832.821 542.179 837.383 528.333 838.656 523.483C839.225 520.02 839.705 516.807 840.617 513.404L841.558 507.389C844.433 490.354 845.248 476.252 844.937 459.088C844.636 453.068 843.408 442.474 843.846 436.956C844.105 435.726 844.292 434.481 844.405 433.229C844.592 431.021 843.981 430.155 842.611 428.511C841.958 427.926 836.307 398.928 835.061 394.591C833.734 387.696 825.579 367.55 822.782 360.567C820.976 356.35 818.784 352.192 816.707 348.092C806.079 328.457 797.728 317.024 783.667 299.757C770.486 283.332 752.948 268.862 735.784 256.797C731.752 253.963 727.639 251.591 723.677 248.803C715.824 244.337 707.84 240.102 699.738 236.105L687.878 230.894C674.542 226.428 666.781 223.052 652.275 219.005C642.074 217.332 633.528 214.611 622.717 213.4C593.683 210.148 563.065 211.026 534.363 216.6C531.888 217.08 523.006 218.977 520.873 219.811C507.911 223.591 499.956 226.021 487.378 231.118C483.847 232.541 481.17 233.659 477.789 235.383C465.554 241.295 458.074 245.253 446.393 252.324C430.444 263.374 417.145 273.46 403.382 287.174C396.582 293.948 390.367 302.186 384.036 308.632C373.671 319.781 362.374 338.863 355.303 352.313L352.015 358.796C346.649 370.34 342.092 382.243 338.376 394.418C328.659 429.906 327.293 447.358 327.26 483.844C327.278 491.696 328.317 499.42 329.206 507.225C329.736 509.792 330.162 511.867 330.484 514.478L331.31 517.452L332.848 524.052C333.755 528.231 338.514 544.796 338.501 546.697C303.527 526.6 263.401 495.931 237.859 464.434C212.927 433.692 196.77 391.076 201.362 351.074C205.036 318.653 221.381 288.999 246.833 268.58C246.063 265.298 243.248 254.182 243.62 251.358C244.345 245.857 251.661 227.989 255.781 224.562C262.326 222.78 277.889 236.767 281.705 242.09Z"/><path fill="#473932" d="M281.705 242.09C283.438 234.488 284.171 222.766 285.227 214.654C293.756 149.102 348.489 96.9375 415.316 96.0118C427.657 95.8408 439.962 97.8072 452.269 98.406C453.24 98.4533 455.556 98.2448 456.476 97.7518C461.543 93.0708 466.777 84.8738 471.079 79.5535C474.344 75.5178 477.792 71.6333 481.412 67.9123C509.23 39.4964 544.94 23.5093 584.799 23.1813C626.125 22.5501 665.869 39.0466 694.6 68.7555C699.109 73.4765 703.305 78.4864 707.163 83.7533C710.153 87.7584 713.797 93.3163 717.299 96.6633L717.835 97.1665C725.369 99.2913 738.41 96.8784 746.56 96.2987C795.531 92.8157 844.746 115.906 870.096 158.572C884.667 183.097 889.167 206.826 892.275 234.649C897.2 230.247 906.447 220.843 912.397 219.867C915.518 220.962 917.804 225.999 919.17 228.867C926.075 243.368 927.933 245.955 922.66 261.526C922.491 262.017 922.312 262.504 922.122 262.987C948.481 279.679 964.688 307.063 971.889 337.008C980.242 371.745 969.794 412.549 950.63 442.193C924.704 482.297 874.079 523.616 832.384 546.449C832.821 542.179 837.383 528.333 838.656 523.483C844.665 521.617 870.674 501.866 876.747 497.129L879.897 494.299C895.728 481.072 926.529 453.302 936.695 435.146C954.837 405.651 964.862 374.186 957.265 339.474C952.135 316.031 937.205 291.08 917.288 277.322C909.282 272.01 900.23 268.232 892.01 263.318C873.546 252.282 876.719 223.72 872.533 204.063C860.698 148.493 814.942 112.713 758.68 110.792C745.312 109.636 725.666 116.702 713.46 111.392C703.765 107.174 693.427 89.3359 685.714 81.0278C678.57 73.2198 670.426 66.3886 661.494 60.711C627.779 38.8274 593.628 33.8027 554.708 42.104C540.668 46.5238 534.361 49.1359 521.267 56.0325C505.1 66.8273 493.368 74.5817 481.32 90.4843C474.641 99.2987 468.063 113.183 455.366 113.502C438.847 112.875 424.933 110.599 407.879 111.391C385.985 114.967 375.935 118.362 356.614 128.668C351.006 132.407 344.513 136.51 339.545 140.895C319.318 158.743 305.888 182.799 300.9 209.283C298.631 221.33 297.927 233.527 295.57 245.624C291.77 265.132 273.949 267.947 259.714 277.649C237.938 292.492 223.066 316.519 217.547 342.159C210.757 374.101 220.549 408.341 237.203 435.718C237.918 433.426 236.157 429.943 235.13 427.696C231.388 423.936 227.114 406.561 228.685 401.68C228.657 400.499 227.184 391.041 226.953 389.193L227.525 387.384C229.57 387.585 231.006 390.097 232.975 391.767C238.289 364.878 244.546 346.182 260.567 323.389L260.868 323.454C267.85 329.965 275.189 336.255 282.209 342.715C284.418 344.748 290.212 349.679 291.704 351.695C296.793 355.72 300.328 358.635 304.822 363.293C314.589 370.782 327.186 385.835 338.376 394.418C328.659 429.906 327.293 447.358 327.26 483.844C327.278 491.696 328.317 499.42 329.206 507.225C329.736 509.792 330.162 511.867 330.484 514.478L331.31 517.452L332.848 524.052C333.755 528.231 338.514 544.796 338.501 546.697C303.527 526.6 263.401 495.931 237.859 464.434C212.927 433.692 196.77 391.076 201.362 351.074C205.036 318.653 221.381 288.999 246.833 268.58C246.063 265.298 243.248 254.182 243.62 251.358C244.345 245.857 251.661 227.989 255.781 224.562C262.326 222.78 277.889 236.767 281.705 242.09Z"/><defs><linearGradient id="gradient_1" gradientUnits="userSpaceOnUse" x1="277.67365" y1="401.19681" x2="338.45309" y2="418.07977"><stop offset="0" stop-color="#3E97C4"/><stop offset="1" stop-color="#83D5D8"/></linearGradient></defs><path fill="url(#gradient_1)" d="M260.567 323.389L260.868 323.454C267.85 329.965 275.189 336.255 282.209 342.715C284.418 344.748 290.212 349.679 291.704 351.695C296.793 355.72 300.328 358.635 304.822 363.293C314.589 370.782 327.186 385.835 338.376 394.418C328.659 429.906 327.293 447.358 327.26 483.844C326.515 478.983 326.74 471.789 326.75 466.727C322.236 463.163 317.169 458.992 312.117 456.312C311.178 456.034 310.433 455.316 310.119 454.388C309.375 453.003 280.143 430.615 276.851 428.274C274.348 427.868 234.923 395.775 232.975 391.767C238.289 364.878 244.546 346.182 260.567 323.389Z"/><path fill="#398CBC" d="M260.567 323.389L260.868 323.454C267.85 329.965 275.189 336.255 282.209 342.715C284.418 344.748 290.212 349.679 291.704 351.695L290.995 352.674C287.136 353.029 282.342 353.731 278.647 354.836C258.621 360.828 257.974 389.73 275.084 399.033C276.732 401.582 285.675 402.738 282.981 410.056C281.78 413.319 277.965 426.036 276.851 428.274C274.348 427.868 234.923 395.775 232.975 391.767C238.289 364.878 244.546 346.182 260.567 323.389Z"/><path fill="#6CAFC1" d="M291.704 351.695C296.793 355.72 300.328 358.635 304.822 363.293L303.662 363.395C302.129 361.995 297.172 356.877 295.539 356.918C300.194 366.075 308.956 366.289 305.379 381.527C303.073 391.35 297.801 391.18 293.36 399.322C291.295 403.382 278.035 399.16 275.084 399.033C257.974 389.73 258.621 360.828 278.647 354.836C282.342 353.731 287.136 353.029 290.995 352.674L291.704 351.695Z"/><path fill="#FAFAF9" d="M282.671 364.793C287.261 363.627 292.122 365.018 295.399 368.436C298.676 371.854 299.862 376.77 298.503 381.305C297.145 385.841 293.452 389.295 288.835 390.349C281.818 391.95 274.818 387.612 273.131 380.615C271.443 373.619 275.696 366.566 282.671 364.793Z"/><path fill="#B4E9EA" d="M310.119 454.388C309.675 453.072 310.187 451.623 311.36 450.879C312.534 450.135 314.063 450.29 315.064 451.253C316.064 452.217 316.277 453.739 315.578 454.94C314.879 456.14 313.449 456.707 312.117 456.312C311.178 456.034 310.433 455.316 310.119 454.388Z"/><path fill="#B4E9EA" d="M318.219 439.048C319.797 438.492 321.552 438.845 322.792 439.968C324.033 441.09 324.559 442.801 324.164 444.426C323.769 446.052 322.515 447.33 320.898 447.757C318.532 448.383 316.094 447.029 315.374 444.689C314.655 442.35 315.91 439.86 318.219 439.048Z"/><path fill="#4286B2" d="M226.953 389.193L227.525 387.384C229.57 387.585 231.006 390.097 232.975 391.767C234.923 395.775 274.348 427.868 276.851 428.274C280.143 430.615 309.375 453.003 310.119 454.388C310.433 455.316 311.178 456.034 312.117 456.312C317.169 458.992 322.236 463.163 326.75 466.727C326.74 471.789 326.515 478.983 327.26 483.844C327.278 491.696 328.317 499.42 329.206 507.225C329.736 509.792 330.162 511.867 330.484 514.478L331.31 517.452C328.664 517.839 328.602 517.781 326.826 519.672C326.78 521.205 326.836 522.867 326.372 524.301C327.009 521.896 326.306 519.335 324.531 517.592C322.755 515.849 320.18 515.194 317.788 515.876L317.685 515.492C315.985 513.788 286.734 491.145 285.883 490.888C284.975 487.647 283.611 485.991 280.39 485.016L280.399 484.749C267.396 474.661 245.182 450.444 237.203 435.718C237.918 433.426 236.157 429.943 235.13 427.696C231.388 423.936 227.114 406.561 228.685 401.68C228.657 400.499 227.184 391.041 226.953 389.193Z"/><defs><linearGradient id="gradient_2" gradientUnits="userSpaceOnUse" x1="267.37283" y1="479.52512" x2="293.54645" y2="461.97568"><stop offset="0" stop-color="#3379A5"/><stop offset="1" stop-color="#6591BE"/></linearGradient></defs><path fill="url(#gradient_2)" d="M232.174 418.644C238.702 427.964 244.67 437.664 251.701 446.579C271.175 471.267 296.797 489.795 322.048 508.088C324.834 510.106 327.806 512.295 330.484 514.478L331.31 517.452C328.664 517.839 328.602 517.781 326.826 519.672C326.78 521.205 326.836 522.867 326.372 524.301C327.009 521.896 326.306 519.335 324.531 517.592C322.755 515.849 320.18 515.194 317.788 515.876L317.685 515.492C315.985 513.788 286.734 491.145 285.883 490.888C284.975 487.647 283.611 485.991 280.39 485.016L280.399 484.749C267.396 474.661 245.182 450.444 237.203 435.718C237.918 433.426 236.157 429.943 235.13 427.696C234.195 424.662 233.209 421.645 232.174 418.644Z"/><path fill="#57BFD7" d="M235.13 427.696C231.388 423.936 227.114 406.561 228.685 401.68C243.24 438.489 277.801 471.341 309.42 493.776C312.806 496.178 326.697 506.77 329.206 507.225C329.736 509.792 330.162 511.867 330.484 514.478C327.806 512.295 324.834 510.106 322.048 508.088C296.797 489.795 271.175 471.267 251.701 446.579C244.67 437.664 238.702 427.964 232.174 418.644C233.209 421.645 234.195 424.662 235.13 427.696Z"/><path fill="#6CAFC1" d="M246.833 268.58C246.063 265.298 243.248 254.182 243.62 251.358C244.345 245.857 251.661 227.989 255.781 224.562C262.326 222.78 277.889 236.767 281.705 242.09C280.929 245.019 280.75 245.479 279.347 248.164L278.197 248.909L277.148 250.177C274.278 251.861 271.384 253.503 268.465 255.101C264.631 257.207 260.832 259.375 257.068 261.604L250.414 265.95L246.833 268.58Z"/><path fill="#8FE2E6" d="M258.344 246.105C262.872 247.712 261.414 253.169 268.465 255.101C264.631 257.207 260.832 259.375 257.068 261.604L250.414 265.95C248.593 263.319 246.987 253.6 247.712 250.412C250.93 250.134 250.431 248.131 253.691 247.968C255.288 247.753 255.853 247.51 257.334 246.989L258.344 246.105Z"/><path fill="#50D1DD" d="M258.344 246.105C262.872 247.712 261.414 253.169 268.465 255.101C264.631 257.207 260.832 259.375 257.068 261.604C257.448 255.941 255.558 253.769 257.334 246.989L258.344 246.105Z"/><path fill="#89D0D3" d="M263.774 241.009L269.849 240.242C273.976 244.45 272.779 248.532 278.197 248.909L277.148 250.177C274.278 251.861 271.384 253.503 268.465 255.101C261.414 253.169 262.872 247.712 258.344 246.105C260.738 245.299 260.396 243.562 260.69 241.413L263.774 241.009Z"/><path fill="#8FE2E6" d="M263.774 241.009L269.849 240.242C273.976 244.45 272.779 248.532 278.197 248.909L277.148 250.177C271.853 249.659 266.401 243.984 260.69 241.413L263.774 241.009Z"/><path fill="#CDF0EF" d="M257.284 228.025C260.961 230.062 268.184 234.105 271.294 236.86C272.005 238.265 273.361 240.251 273.158 241.508C272.029 240.794 271.22 240.402 269.849 240.242L263.774 241.009C263.173 240.937 254.097 235.971 253.782 235.686C254.929 233.167 256.09 230.507 257.284 228.025Z"/><path fill="#B4E9EA" d="M251.773 240.04L253.782 235.686C254.097 235.971 263.173 240.937 263.774 241.009L260.69 241.413C260.396 243.562 260.738 245.299 258.344 246.105L257.334 246.989C255.853 247.51 255.288 247.753 253.691 247.968C254.157 243.6 254.253 243.499 251.773 240.04Z"/><path fill="#B4E9EA" d="M271.294 236.86C275.239 240.1 278.171 242.982 279.347 248.164L278.197 248.909C272.779 248.532 273.976 244.45 269.849 240.242C271.22 240.402 272.029 240.794 273.158 241.508C273.361 240.251 272.005 238.265 271.294 236.86Z"/><path fill="#B0F3F1" d="M247.712 250.412C248.997 246.544 250.138 243.789 251.773 240.04C254.253 243.499 254.157 243.6 253.691 247.968C250.431 248.131 250.93 250.134 247.712 250.412Z"/><path fill="#B4E9EA" d="M892.275 234.649C897.2 230.247 906.447 220.843 912.397 219.867C915.518 220.962 917.804 225.999 919.17 228.867C926.075 243.368 927.933 245.955 922.66 261.526C922.491 262.017 922.312 262.504 922.122 262.987L918.878 260.865L907.861 254.691L902.286 251.796C896.041 248.618 894.693 247.099 892.906 240.384L892.275 234.649Z"/><path fill="#6CAFC1" d="M892.275 234.649C897.2 230.247 906.447 220.843 912.397 219.867C915.518 220.962 917.804 225.999 919.17 228.867C926.075 243.368 927.933 245.955 922.66 261.526C922.491 262.017 922.312 262.504 922.122 262.987L918.878 260.865C920.116 258.499 920.186 258.065 920.632 255.417C921.987 247.59 922.665 245.443 918.937 238.175C916.71 233.833 915.187 228.274 912.069 224.366C910.696 224.035 910.742 224.437 909.071 225.419C910.883 229.799 907.336 233.005 907.703 238.816C903.563 239.838 899.049 240.948 894.759 240.846L893.927 239.869L892.906 240.384L892.275 234.649Z"/><path fill="#B0F3F1" d="M909.071 225.419C910.883 229.799 907.336 233.005 907.703 238.816C903.563 239.838 899.049 240.948 894.759 240.846L893.927 239.869C897.008 234.859 904.414 229.302 909.071 225.419Z"/><path fill="#50D1DD" d="M893.927 239.869L894.759 240.846C899.049 240.948 903.563 239.838 907.703 238.816C910.439 245.099 908.239 248.603 902.286 251.796C896.041 248.618 894.693 247.099 892.906 240.384L893.927 239.869Z"/><path fill="#89D0D3" d="M911.031 245.851C914.919 249.598 916.83 252.224 920.159 255.639L920.632 255.417C920.186 258.065 920.116 258.499 918.878 260.865L907.861 254.691C909.868 253.103 910.5 248.416 911.031 245.851Z"/><path fill="#89D0D3" d="M317.788 515.876C320.18 515.194 322.755 515.849 324.531 517.592C326.306 519.335 327.009 521.896 326.372 524.301C325.514 527.534 322.466 529.691 319.131 529.423C315.796 529.155 313.131 526.54 312.801 523.211C312.471 519.882 314.571 516.794 317.788 515.876Z"/><path fill="#3C3B3B" d="M356.614 128.668C360.564 118.68 396.749 109.626 407.879 111.391C385.985 114.967 375.935 118.362 356.614 128.668Z"/><path fill="#3C3B3B" d="M521.267 56.0325C521.452 55.6715 521.762 55.0249 522.092 54.7891C531.993 47.7316 542.479 41.1499 554.708 42.104C540.668 46.5238 534.361 49.1359 521.267 56.0325Z"/><path fill="#89D0D3" d="M280.39 485.016C283.611 485.991 284.975 487.647 285.883 490.888C283.756 493.403 281.706 494.347 278.804 492.495C276.397 489.188 277.517 487.384 280.39 485.016Z"/><path fill="#398CBC" d="M326.826 519.672C328.602 517.781 328.664 517.839 331.31 517.452L332.848 524.052L326.826 519.672Z"/><path fill="#89D0D3" d="M874.659 508.538C874.864 506.886 876.013 505.505 877.6 505.002C879.188 504.5 880.922 504.969 882.04 506.203C883.158 507.436 883.455 509.208 882.799 510.739C881.964 512.688 879.821 513.725 877.774 513.172C875.727 512.618 874.399 510.643 874.659 508.538Z"/><path fill="#57BFD7" d="M874.659 508.538C874.864 506.886 876.013 505.505 877.6 505.002C879.188 504.5 880.922 504.969 882.04 506.203C883.158 507.436 883.455 509.208 882.799 510.739C882.54 509.13 882.609 509.141 881.71 507.682C879.375 506.562 877.298 507.687 874.659 508.538Z"/><defs><linearGradient id="gradient_3" gradientUnits="userSpaceOnUse" x1="785.48907" y1="215.49875" x2="755.8443" y2="285.86609"><stop offset="0" stop-color="#529CC1"/><stop offset="1" stop-color="#78D7DC"/></linearGradient></defs><path fill="url(#gradient_3)" d="M670.081 93.3987C697.359 114.883 690.659 138.164 732.151 137.221C739.324 135.465 761.095 136.258 768.489 136.625C771.148 140.829 766.028 143.292 766.672 147.032C769.334 149.261 775.164 150.37 778.556 151.727C809.121 163.957 830.551 182.842 847.736 210.825C848.967 209.016 851.597 204.831 853.111 203.651C851.32 209.03 848.541 209.227 849.39 213.162C848.307 212.112 848.926 212.32 847.65 212.137C839.541 220.025 825.301 251.259 818.039 255.082L817.031 255.418C814.867 261.44 813.245 268.326 807.146 270.79C805.387 271.5 800.903 273.345 800.062 274.649L800.196 275.296C797.839 280.065 787.295 295.177 783.667 299.757C770.486 283.332 752.948 268.862 735.784 256.797C731.752 253.963 727.639 251.591 723.677 248.803C715.824 244.337 707.84 240.102 699.738 236.105L687.878 230.894C674.542 226.428 666.781 223.052 652.275 219.005C652.671 212.952 654.673 203.868 655.488 197.266C657.105 194.738 659.9 159.916 660.457 154.706C662.081 139.499 663.865 124.039 666.69 108.893C667.396 105.104 667.474 100.392 668.168 96.5379C668.511 94.6303 668.797 94.6607 670.081 93.3987Z"/><defs><linearGradient id="gradient_4" gradientUnits="userSpaceOnUse" x1="720.09613" y1="111.44553" x2="679.27679" y2="232.2065"><stop offset="0" stop-color="#206BA2"/><stop offset="1" stop-color="#5093BD"/></linearGradient></defs><path fill="url(#gradient_4)" d="M670.081 93.3987C697.359 114.883 690.659 138.164 732.151 137.221L732.929 137.318C740.617 138.228 763.366 136.329 767.818 138.288C767.685 141.396 765.734 145.193 764.869 148.282C759.105 168.877 747.319 188.484 740.711 208.531C737.747 216.939 727.643 241.426 723.677 248.803C715.824 244.337 707.84 240.102 699.738 236.105L687.878 230.894C674.542 226.428 666.781 223.052 652.275 219.005C652.671 212.952 654.673 203.868 655.488 197.266C657.105 194.738 659.9 159.916 660.457 154.706C662.081 139.499 663.865 124.039 666.69 108.893C667.396 105.104 667.474 100.392 668.168 96.5379C668.511 94.6303 668.797 94.6607 670.081 93.3987Z"/><path fill="#296E93" d="M687.878 230.894C688.766 224.221 691.325 214.84 692.8 207.999C694.877 197.979 696.656 187.9 698.134 177.774C698.859 173.039 701.045 155.838 703.019 152.549C706.308 150.134 711.31 150.555 714.031 153.605C717.274 162.662 705.508 228.343 699.738 236.105L687.878 230.894Z"/><path fill="#398CBC" d="M732.151 137.221C739.324 135.465 761.095 136.258 768.489 136.625C771.148 140.829 766.028 143.292 766.672 147.032C769.334 149.261 775.164 150.37 778.556 151.727C809.121 163.957 830.551 182.842 847.736 210.825C848.967 209.016 851.597 204.831 853.111 203.651C851.32 209.03 848.541 209.227 849.39 213.162C848.307 212.112 848.926 212.32 847.65 212.137C839.541 220.025 825.301 251.259 818.039 255.082L817.031 255.418C796.808 251.657 824.039 230.388 829.945 226.898C833.302 224.915 833.254 222.717 833.562 219.099C832.637 218.338 831.988 218.003 830.971 217.39C826.6 212.282 823.812 210.482 817.451 208.009C817.564 208.053 815.807 203.662 815.288 202.955C812.811 199.577 809.386 197.163 806.753 193.941C803.318 188.846 803.244 179.987 795.046 180.262C794.492 178.484 794.473 178.322 793.419 176.823L792.345 176.865L790.985 178.704C786.788 179.769 778.065 183.844 776.99 188.379C775.934 192.833 776.556 195.582 773.301 199.226C770.449 199.306 769.356 198.668 767.893 201.631C765.912 201.695 762.667 201.526 761.122 202.479L761.521 202.972L765.478 202.912C764.561 204.339 743.145 208.704 740.711 208.531C747.319 188.484 759.105 168.877 764.869 148.282C765.734 145.193 767.685 141.396 767.818 138.288C763.366 136.329 740.617 138.228 732.929 137.318L732.151 137.221Z"/><path fill="#FAFAF9" d="M790.985 178.704L792.345 176.865L793.419 176.823C794.473 178.322 794.492 178.484 795.046 180.262C803.244 179.987 803.318 188.846 806.753 193.941C809.386 197.163 812.811 199.577 815.288 202.955C815.807 203.662 817.564 208.053 817.451 208.009C823.812 210.482 826.6 212.282 830.971 217.39C831.988 218.003 832.637 218.338 833.562 219.099C830.975 220.985 828.222 221.522 825.091 222.107C803.879 226.841 799.434 238.866 793.928 257.988C793.395 258.57 793.238 258.575 792.55 259.004C791.555 258.467 790.911 257.984 790.569 256.698C788.198 247.795 786.393 239.237 779.694 232.204C776.878 229.297 773.523 226.964 769.817 225.335C765.711 223.508 755.016 221.547 753.316 218.76C756.286 215.837 766.794 214.196 772.549 210.75C783.873 203.969 786.571 194.59 789.881 182.566L790.985 178.704Z"/><path fill="#529FC3" d="M795.046 180.262C803.244 179.987 803.318 188.846 806.753 193.941C809.386 197.163 812.811 199.577 815.288 202.955C815.807 203.662 817.564 208.053 817.451 208.009C823.812 210.482 826.6 212.282 830.971 217.39C806.849 210.441 800.219 205.842 795.046 180.262Z"/><path fill="#529FC3" d="M753.316 218.76C754.409 208.636 760.227 210.619 768.42 207.555C778.347 203.842 780.125 197 783.652 187.885C784.739 185.077 787.09 183.474 789.881 182.566C786.571 194.59 783.873 203.969 772.549 210.75C766.794 214.196 756.286 215.837 753.316 218.76Z"/><path fill="#6CAFC1" d="M793.928 257.988C799.434 238.866 803.879 226.841 825.091 222.107L824.663 222.584C821.868 225.638 821.336 225.008 818.118 227.084C813.887 229.813 810.415 232.882 807.12 236.628C801.638 242.858 802.304 251.019 796.318 256.345L797.197 254.211C796.3 255.232 794.861 257.341 793.928 257.988Z"/><defs><linearGradient id="gradient_5" gradientUnits="userSpaceOnUse" x1="590.90515" y1="77.373672" x2="580.57062" y2="205.15436"><stop offset="0" stop-color="#2A77B6"/><stop offset="1" stop-color="#59B5D2"/></linearGradient></defs><path fill="url(#gradient_5)" d="M509.894 107.053C513.385 104.963 516.886 102.891 520.399 100.838C559.984 77.767 611.958 72.4902 656.005 87.8832C659.684 89.169 664.171 90.9913 667.872 91.9402L668.31 92.0479C668.572 92.2422 669.958 93.2411 670.081 93.3987C668.797 94.6607 668.511 94.6303 668.168 96.5379C667.474 100.392 667.396 105.104 666.69 108.893C663.865 124.039 662.081 139.499 660.457 154.706C659.9 159.916 657.105 194.738 655.488 197.266C654.673 203.868 652.671 212.952 652.275 219.005C642.074 217.332 633.528 214.611 622.717 213.4C593.683 210.148 563.065 211.026 534.363 216.6C531.888 217.08 523.006 218.977 520.873 219.811C520.171 213.611 519.527 207.405 518.941 201.193C518.298 199.587 517.86 192.337 517.601 190.322C514.699 167.737 515.575 144.859 511.86 122.416C511.049 117.517 510.415 112.553 509.739 107.631L509.894 107.053Z"/><path fill="#50D1DD" d="M518.941 201.193C519.415 200.711 519.642 200.288 519.987 199.727C524.225 192.826 566.069 191.994 574.346 191.928C578.209 191.897 584.914 193.019 588.378 191.801C588.955 191.598 589.163 191.415 589.456 190.893C590.416 189.18 591.439 186.95 593.588 186.608C595.017 186.38 595.771 186.591 596.821 187.483C597.153 189.575 597.167 192.029 599.69 192.196C614.984 193.211 629.982 194.107 645.009 197.374C647.594 197.935 651.04 198.95 653.472 199.325C654.831 198.28 654.416 198.504 654.994 196.453L655.488 197.266C654.673 203.868 652.671 212.952 652.275 219.005C642.074 217.332 633.528 214.611 622.717 213.4C593.683 210.148 563.065 211.026 534.363 216.6C531.888 217.08 523.006 218.977 520.873 219.811C520.171 213.611 519.527 207.405 518.941 201.193Z"/><path fill="#B0F3F1" d="M571.35 192.627C574.662 192.086 577.794 194.31 578.374 197.616C578.954 200.922 576.767 204.079 573.467 204.698C571.299 205.104 569.079 204.314 567.655 202.628C566.232 200.942 565.824 198.621 566.589 196.551C567.354 194.482 569.172 192.983 571.35 192.627Z"/><path fill="#B4E9EA" d="M585.598 203.311C587.083 202.64 588.831 203.288 589.519 204.764C590.207 206.241 589.58 207.996 588.111 208.702C587.146 209.166 586.006 209.075 585.126 208.464C584.247 207.853 583.763 206.816 583.861 205.75C583.959 204.683 584.622 203.752 585.598 203.311Z"/><path fill="#B4E9EA" d="M592.326 188.164C593.217 187.562 594.366 187.497 595.319 187.994C596.272 188.491 596.876 189.47 596.892 190.544C596.909 191.619 596.336 192.616 595.399 193.143C594.03 193.912 592.298 193.464 591.473 192.128C590.648 190.791 591.025 189.042 592.326 188.164Z"/><defs><linearGradient id="gradient_6" gradientUnits="userSpaceOnUse" x1="282.11719" y1="276.15961" x2="374.03217" y2="323.5831"><stop offset="0" stop-color="#2172A8"/><stop offset="1" stop-color="#5795BB"/></linearGradient></defs><path fill="url(#gradient_6)" d="M350.26 240.982C352.049 239.991 356.873 238.448 357.731 237.733C362.293 233.338 367.218 228.053 371.886 223.891C378.554 217.946 416.547 194.448 424.109 199.489C425.195 201.653 425.551 202.332 427.002 204.291L427.33 204.728C429.089 210.681 434.439 222.809 436.9 228.981C439.213 234.784 443.718 247.154 446.393 252.324C430.444 263.374 417.145 273.46 403.382 287.174C396.582 293.948 390.367 302.186 384.036 308.632C373.671 319.781 362.374 338.863 355.303 352.313L352.015 358.796C346.649 370.34 342.092 382.243 338.376 394.418C327.186 385.835 314.589 370.782 304.822 363.293C300.328 358.635 296.793 355.72 291.704 351.695C290.212 349.679 284.418 344.748 282.209 342.715C275.189 336.255 267.85 329.965 260.868 323.454C269.839 309.529 281.374 299.305 291.737 286.54C292.284 285.867 292.455 284.496 292.521 283.639C313.558 267.069 308.069 243.151 313.773 218.976C316.132 216.574 316.729 208.54 318.619 207.339C321.495 216.889 327.11 213.872 319.185 224.447C318.589 225.242 317.613 228.803 317.283 230.072L317.584 230.488C320.022 224.583 321.404 222.123 324.737 216.65C331.279 225.489 335.433 232.557 341.08 242.097C343.417 240.728 347.423 241.009 350.26 240.982Z"/><defs><linearGradient id="gradient_7" gradientUnits="userSpaceOnUse" x1="378.81473" y1="217.24158" x2="422.44815" y2="278.91205"><stop offset="0" stop-color="#368CC0"/><stop offset="1" stop-color="#7AD6DB"/></linearGradient></defs><path fill="url(#gradient_7)" d="M350.26 240.982C352.049 239.991 356.873 238.448 357.731 237.733C362.293 233.338 367.218 228.053 371.886 223.891C378.554 217.946 416.547 194.448 424.109 199.489C425.195 201.653 425.551 202.332 427.002 204.291L427.33 204.728C429.089 210.681 434.439 222.809 436.9 228.981C439.213 234.784 443.718 247.154 446.393 252.324C430.444 263.374 417.145 273.46 403.382 287.174C396.582 293.948 390.367 302.186 384.036 308.632C377.749 298.82 371.759 288.795 365.478 278.959L363.664 276.026C366.883 275.299 373.599 274.54 374.708 271.305C365.391 268.867 358.392 268.501 353.672 259.273L352.211 255.805L351.136 252.431C350.393 250.122 349.638 246.599 347.858 245.368C346.215 246.383 346.372 247.079 345.534 249.181C344.36 249.601 344.392 249.578 343.395 250.323C343.518 246.285 343.253 245.517 341.08 242.097C343.417 240.728 347.423 241.009 350.26 240.982Z"/><path fill="#529FC3" d="M350.26 240.982C347.135 241.707 346.082 241.363 343.916 243.314C343.283 245.247 343.376 246.158 344.687 247.895C345.79 246.347 345.997 245.488 346.664 243.681C356.024 242.864 362.568 256.873 368.047 262.562L367.167 263.622C370.075 266.384 375.027 262.802 377.136 268.196L376.402 268.541L372.879 265.948L372.565 266.329C373.544 268.783 374.418 268.615 374.708 271.305C365.391 268.867 358.392 268.501 353.672 259.273L352.211 255.805L351.136 252.431C350.393 250.122 349.638 246.599 347.858 245.368C346.215 246.383 346.372 247.079 345.534 249.181C344.36 249.601 344.392 249.578 343.395 250.323C343.518 246.285 343.253 245.517 341.08 242.097C343.417 240.728 347.423 241.009 350.26 240.982Z"/><path fill="#6CAFC1" d="M351.136 252.431C355.951 253.047 357.296 257.216 359.149 261.112L360.025 262.208L359.62 262.541C356.821 261.357 356.178 261.094 353.672 259.273L352.211 255.805L351.136 252.431Z"/><path fill="#CDF0EF" d="M392.366 269.783C393.847 269.03 395.66 269.584 396.466 271.038C397.272 272.491 396.782 274.322 395.359 275.179C394.391 275.762 393.183 275.77 392.208 275.2C391.233 274.63 390.646 273.574 390.679 272.445C390.712 271.316 391.359 270.295 392.366 269.783Z"/><path fill="#296E93" d="M352.015 358.796C350.498 359.797 350.327 360.365 349.502 361.985L348.507 362.176C334.369 349.302 319.529 325.008 310.627 307.974C308.424 303.759 307.281 297.387 308.924 292.888C310.008 289.921 314.291 288.665 316.963 289.955C321.188 294.455 330.291 312.664 334.22 319.569C339.018 328.003 353.93 345.497 355.303 352.313L352.015 358.796Z"/><path fill="#FAFAF9" d="M345.534 249.181C346.372 247.079 346.215 246.383 347.858 245.368C349.638 246.599 350.393 250.122 351.136 252.431L352.211 255.805L353.672 259.273C358.392 268.501 365.391 268.867 374.708 271.305C373.599 274.54 366.883 275.299 363.664 276.026L365.478 278.959C362.22 280.07 362.217 284.065 361.641 287.209L352.582 294.498C351.936 296.592 351.057 297.077 349.018 298.248L348.46 299.444L347.569 299.492C346.33 297.681 345.779 294.805 345.186 292.597C338.299 271.016 324.867 278.609 322.085 271.824C323.586 270.679 324.612 270.644 326.514 270.231C326.678 268.332 326.611 268.363 327.421 266.678C328.779 265.629 330.183 265.808 331.943 265.749C334.357 262.811 336.89 262.168 337.95 258.773L338.155 257.712L340.005 257.423C341.339 256.05 342.6 252.306 343.395 250.323C344.392 249.578 344.36 249.601 345.534 249.181Z"/><path fill="#529FC3" d="M359.976 277.98C360.519 277.546 362.901 276.41 363.664 276.026L365.478 278.959C362.22 280.07 362.217 284.065 361.641 287.209L352.582 294.498C351.936 296.592 351.057 297.077 349.018 298.248C351.399 290.623 353.25 282.71 359.976 277.98Z"/><path fill="#4286B2" d="M343.395 250.323C344.392 249.578 344.36 249.601 345.534 249.181C344.511 254.584 343.915 257.94 341.184 262.698C336.03 262.952 335.591 265.332 331.943 265.749C334.357 262.811 336.89 262.168 337.95 258.773L338.155 257.712L340.005 257.423C341.339 256.05 342.6 252.306 343.395 250.323Z"/><path fill="#398CBC" d="M331.943 265.749C335.591 265.332 336.03 262.952 341.184 262.698C336.424 267.772 333.268 268.562 326.514 270.231C326.678 268.332 326.611 268.363 327.421 266.678C328.779 265.629 330.183 265.808 331.943 265.749Z"/><path fill="#296E93" d="M345.186 292.597C331.935 291.907 335.525 286.271 327.197 280.263C321.207 275.942 316.157 279.166 321.664 265.958C322.129 264.841 327.119 265.929 328.957 265.097C332.363 263.557 335.06 261.103 337.95 258.773C336.89 262.168 334.357 262.811 331.943 265.749C330.183 265.808 328.779 265.629 327.421 266.678C326.611 268.363 326.678 268.332 326.514 270.231C324.612 270.644 323.586 270.679 322.085 271.824C324.867 278.609 338.299 271.016 345.186 292.597Z"/><path fill="#CDF0EF" d="M367.015 296.136C369.395 294.958 372.28 295.896 373.512 298.249C374.743 300.602 373.87 303.507 371.545 304.791C369.994 305.648 368.101 305.598 366.598 304.66C365.095 303.723 364.216 302.045 364.303 300.276C364.39 298.506 365.427 296.923 367.015 296.136Z"/><defs><linearGradient id="gradient_8" gradientUnits="userSpaceOnUse" x1="892.25262" y1="270.82721" x2="797.36719" y2="322.89413"><stop offset="0" stop-color="#2270A6"/><stop offset="1" stop-color="#5394BD"/></linearGradient></defs><path fill="url(#gradient_8)" d="M853.111 203.651L854.329 202.502C857.164 204.987 856.673 211.054 859.497 214.8L859.669 215.032L859.825 215.584C866.658 240.764 858.277 267.594 883.711 284.702C885.655 294.702 905.527 312.587 911.206 322.564C912.077 324.092 914.194 326.575 914.62 328.262C905.307 336.059 896.322 344.653 886.803 352.123C881.908 355.965 876.49 352.988 873.576 361.961C865.603 368.927 856.617 375.885 848.563 382.81C844.736 386.1 838.288 390.936 835.061 394.591C833.734 387.696 825.579 367.55 822.782 360.567C820.976 356.35 818.784 352.192 816.707 348.092C806.079 328.457 797.728 317.024 783.667 299.757C787.295 295.177 797.839 280.065 800.196 275.296L800.062 274.649C800.903 273.345 805.387 271.5 807.146 270.79C813.245 268.326 814.867 261.44 817.031 255.418L818.039 255.082C825.301 251.259 839.541 220.025 847.65 212.137C848.926 212.32 848.307 212.112 849.39 213.162C848.541 209.227 851.32 209.03 853.111 203.651Z"/><path fill="#296E93" d="M816.707 348.092C817.652 345.554 820.319 342.142 821.973 339.892C829.992 328.986 837.265 317.859 843.934 306.07C847.403 299.938 851.138 292.869 855.756 287.604C859.543 286.666 861.301 289.006 863.573 291.774C863.591 293.522 863.663 297.927 863.047 299.638C855.554 320.46 839.593 342.048 825.265 358.767C824.566 359.583 823.634 360.116 822.782 360.567C820.976 356.35 818.784 352.192 816.707 348.092Z"/><path fill="#FAFAF9" d="M817.031 255.418L818.039 255.082L818.734 255.123C820.926 256.139 821.723 256.72 823.673 258.081C826.042 266.538 829.908 264.111 832.266 272.114C834.442 272.796 836.922 273.513 839.05 274.253C835.106 275.462 830.471 276.704 826.839 278.533C821.927 282.545 821.201 285.358 819.451 291.305C819.049 292.535 819.13 292.491 818.159 293.326C816.782 292.335 815.885 286.722 814.268 284.017C810.64 277.947 806.321 277.21 800.196 275.296L800.062 274.649C800.903 273.345 805.387 271.5 807.146 270.79C813.245 268.326 814.867 261.44 817.031 255.418Z"/><path fill="#398CBC" d="M818.734 255.123C820.926 256.139 821.723 256.72 823.673 258.081C826.042 266.538 829.908 264.111 832.266 272.114C823.037 270.251 821.172 262.721 818.734 255.123Z"/><path fill="#398CBC" d="M826.839 278.533C825.509 283.757 824.496 288.899 819.451 291.305C821.201 285.358 821.927 282.545 826.839 278.533Z"/><defs><linearGradient id="gradient_9" gradientUnits="userSpaceOnUse" x1="457.52292" y1="128.11124" x2="496.17462" y2="231.83305"><stop offset="0" stop-color="#2270A7"/><stop offset="1" stop-color="#5596BE"/></linearGradient></defs><path fill="url(#gradient_9)" d="M509.739 107.631C510.415 112.553 511.049 117.517 511.86 122.416C515.575 144.859 514.699 167.737 517.601 190.322C517.86 192.337 518.298 199.587 518.941 201.193C519.527 207.405 520.171 213.611 520.873 219.811C507.911 223.591 499.956 226.021 487.378 231.118C483.847 232.541 481.17 233.659 477.789 235.383C465.554 241.295 458.074 245.253 446.393 252.324C443.718 247.154 439.213 234.784 436.9 228.981C434.439 222.809 429.089 210.681 427.33 204.728C426.082 200.049 420.515 187.42 418.481 182.386C414.569 172.464 410.882 162.454 407.424 152.364C413.203 148.436 445.486 140.482 452.795 139.689C453.894 138.874 455.16 138.122 456.328 137.387C463.292 136.172 467.412 134.133 473.145 130.128C477.4 130.571 478.142 130.043 482.002 128.379C490.521 122.477 501.226 114.053 509.739 107.631Z"/><path fill="#296E93" d="M477.789 235.383C476.497 235.134 476.57 235.141 475.438 234.454C471.926 229.13 468.383 210.024 467.191 203.009C464.875 188.343 461.461 173.615 462.053 158.679C462.134 156.626 462.458 153.847 464.39 152.97C470.734 150.092 475.108 154.512 475.781 160.109C478.108 179.478 480.904 198.484 485.386 217.448C486.415 221.799 488.009 226.739 487.378 231.118C483.847 232.541 481.17 233.659 477.789 235.383Z"/><path fill="#296E93" d="M473.145 130.128C477.4 130.571 478.142 130.043 482.002 128.379C474.74 134.98 462.386 138.712 452.795 139.689C453.894 138.874 455.16 138.122 456.328 137.387C463.292 136.172 467.412 134.133 473.145 130.128Z"/><defs><linearGradient id="gradient_10" gradientUnits="userSpaceOnUse" x1="946.08325" y1="443.75052" x2="843.26416" y2="442.68799"><stop offset="0" stop-color="#2074AA"/><stop offset="1" stop-color="#5892BB"/></linearGradient></defs><path fill="url(#gradient_10)" d="M892.319 423.341C894.436 422.165 905.666 412.755 908.381 410.548C917.14 403.45 926.024 396.508 935.03 389.726C937.748 387.661 943.441 383.056 946.385 381.849L946.984 382.111C948.534 388.439 943.092 397.827 942.47 403.984L945.875 397.288C946.091 400.705 945.16 409.62 943.473 412.424C942.494 416.718 936.044 433.441 936.695 435.146C926.529 453.302 895.728 481.072 879.897 494.299L876.747 497.129C870.674 501.866 844.665 521.617 838.656 523.483C839.225 520.02 839.705 516.807 840.617 513.404L841.558 507.389C844.433 490.354 845.248 476.252 844.937 459.088C861.609 447.123 876.133 435.967 892.319 423.341Z"/><defs><linearGradient id="gradient_11" gradientUnits="userSpaceOnUse" x1="905.26575" y1="478.233" x2="878.68085" y2="459.82819"><stop offset="0" stop-color="#307AA7"/><stop offset="1" stop-color="#5B98BB"/></linearGradient></defs><path fill="url(#gradient_11)" d="M840.617 513.404C847.345 506.841 858.259 500.712 865.747 494.813C892.97 473.369 920.574 451.386 937.695 420.566C938.712 418.735 941.803 413.124 943.473 412.424C942.494 416.718 936.044 433.441 936.695 435.146C926.529 453.302 895.728 481.072 879.897 494.299L876.747 497.129C870.674 501.866 844.665 521.617 838.656 523.483C839.225 520.02 839.705 516.807 840.617 513.404Z"/><path fill="#89D0D3" d="M876.747 497.129C874.157 496.176 874.771 496.798 873.243 494.864C873.022 492.507 872.853 493.431 873.813 491.336C875.635 490.103 874.656 490.394 876.855 490.427C878.741 491.415 878.887 492.268 879.897 494.299L876.747 497.129Z"/><path fill="#57BFD7" d="M942.47 403.984L945.875 397.288C946.091 400.705 945.16 409.62 943.473 412.424C941.803 413.124 938.712 418.735 937.695 420.566C920.574 451.386 892.97 473.369 865.747 494.813C858.259 500.712 847.345 506.841 840.617 513.404L841.558 507.389C844.927 505.752 857.404 495.547 861.045 492.869C893.244 469.183 925.742 441.284 942.47 403.984Z"/><path fill="#B4E9EA" d="M858.657 482.378C860.332 481.821 862.154 482.653 862.828 484.285C863.503 485.917 862.801 487.792 861.221 488.581C860.095 489.143 858.749 489.029 857.732 488.286C856.716 487.543 856.2 486.294 856.395 485.05C856.589 483.806 857.462 482.775 858.657 482.378Z"/><path fill="#398CBC" d="M406.813 152.302L407.424 152.364C410.882 162.454 414.569 172.464 418.481 182.386C420.515 187.42 426.082 200.049 427.33 204.728L427.002 204.291C425.551 202.332 425.195 201.653 424.109 199.489C416.547 194.448 378.554 217.946 371.886 223.891C367.218 228.053 362.293 233.338 357.731 237.733C356.873 238.448 352.049 239.991 350.26 240.982C347.423 241.009 343.417 240.728 341.08 242.097C335.433 232.557 331.279 225.489 324.737 216.65C321.404 222.123 320.022 224.583 317.584 230.488L317.283 230.072C317.613 228.803 318.589 225.242 319.185 224.447C327.11 213.872 321.495 216.889 318.619 207.339C319.46 208.016 323.666 214.715 324.851 216.379C343.802 182.384 370.574 164.546 406.813 152.302Z"/><defs><linearGradient id="gradient_12" gradientUnits="userSpaceOnUse" x1="892.48706" y1="404.64386" x2="835.8161" y2="419.159"><stop offset="0" stop-color="#3E99C3"/><stop offset="1" stop-color="#80D4DB"/></linearGradient></defs><path fill="url(#gradient_12)" d="M873.576 361.961C877.139 359.852 883.835 355.824 887.096 360.179L887.438 362.876C902.635 365.521 905.314 380.14 894.557 388.55C894.265 392.576 898.727 399.82 893.158 400.535C885.302 401.543 888.866 420.685 891.163 423.309L892.319 423.341C876.133 435.967 861.609 447.123 844.937 459.088C844.636 453.068 843.408 442.474 843.846 436.956C844.105 435.726 844.292 434.481 844.405 433.229C844.592 431.021 843.981 430.155 842.611 428.511C841.958 427.926 836.307 398.928 835.061 394.591C838.288 390.936 844.736 386.1 848.563 382.81C856.617 375.885 865.603 368.927 873.576 361.961Z"/><path fill="#FAFAF9" d="M887.438 362.876C902.635 365.521 905.314 380.14 894.557 388.55C890.283 390.361 888.21 390.072 883.623 389.967C882.802 389.567 882 389.133 881.216 388.665C874.411 384.532 871.292 375.926 875.824 368.931C878.672 364.535 882.714 363.848 887.438 362.876Z"/><path fill="#B4E9EA" d="M848.788 412.725C851.302 412.966 853.481 413.133 855.234 415.167C856.218 416.287 856.641 417.792 856.385 419.261C855.93 421.935 854.357 423.076 852.302 424.547C842.346 425.121 841.431 417.247 848.788 412.725Z"/><path fill="#B0F3F1" d="M866.015 397.81C869.175 397.023 872.377 398.936 873.181 402.092C873.984 405.248 872.086 408.46 868.934 409.279C865.76 410.103 862.52 408.189 861.712 405.011C860.903 401.833 862.833 398.604 866.015 397.81Z"/><path fill="#398CBC" d="M926.47 317.063C937.303 330.97 946.068 350.413 947.595 367.94C948.388 377.044 948.758 388.596 945.875 397.288L942.47 403.984C943.092 397.827 948.534 388.439 946.984 382.111L946.385 381.849C943.441 383.056 937.748 387.661 935.03 389.726C926.024 396.508 917.14 403.45 908.381 410.548C905.666 412.755 894.436 422.165 892.319 423.341L891.163 423.309C888.866 420.685 885.302 401.543 893.158 400.535C898.727 399.82 894.265 392.576 894.557 388.55C905.314 380.14 902.635 365.521 887.438 362.876L887.096 360.179C883.835 355.824 877.139 359.852 873.576 361.961C876.49 352.988 881.908 355.965 886.803 352.123C896.322 344.653 905.307 336.059 914.62 328.262C917.489 324.225 922.761 320.322 926.47 317.063Z"/><path fill="#529FC3" d="M507.809 91.2403C530.212 71.9725 564.957 60.6225 594.454 62.2511C614.343 63.3492 654.993 76.7564 668.31 92.0479L667.872 91.9402C664.171 90.9913 659.684 89.169 656.005 87.8832C611.958 72.4902 559.984 77.767 520.399 100.838C516.886 102.891 513.385 104.963 509.894 107.053C508.715 102.703 509.63 93.4379 507.809 91.2403Z"/><path fill="#529FC3" d="M313.773 218.976C314.799 209.721 320.911 196.209 326.119 188.188C345.427 158.452 367.879 145.308 401.063 137.279C402.961 141.048 405.667 148.178 406.813 152.302C370.574 164.546 343.802 182.384 324.851 216.379C323.666 214.715 319.46 208.016 318.619 207.339C316.729 208.54 316.132 216.574 313.773 218.976Z"/><path fill="#529FC3" d="M768.489 136.625C801.02 142.175 822.652 152.622 843.252 180.065C849.307 188.131 858.868 205.295 859.669 215.032L859.497 214.8C856.673 211.054 857.164 204.987 854.329 202.502L853.111 203.651C851.597 204.831 848.967 209.016 847.736 210.825C830.551 182.842 809.121 163.957 778.556 151.727C775.164 150.37 769.334 149.261 766.672 147.032C766.028 143.292 771.148 140.829 768.489 136.625Z"/><path fill="#529FC3" d="M226.953 389.193C226.273 386.013 226.631 377.94 226.763 374.693C227.676 352.159 236.599 331.469 250.847 314.172C254.016 317.035 257.765 320.237 260.567 323.389C244.546 346.182 238.289 364.878 232.975 391.767C231.006 390.097 229.57 387.585 227.525 387.384L226.953 389.193Z"/><path fill="#4286B2" d="M883.711 284.702C898.456 293.003 917.159 302.489 926.47 317.063C922.761 320.322 917.489 324.225 914.62 328.262C914.194 326.575 912.077 324.092 911.206 322.564C905.527 312.587 885.655 294.702 883.711 284.702Z"/><path fill="#4286B2" d="M401.063 137.279C411.97 135.46 419.758 135.178 430.901 136.172C439.078 136.902 448.225 138.125 456.328 137.387C455.16 138.122 453.894 138.874 452.795 139.689C445.486 140.482 413.203 148.436 407.424 152.364L406.813 152.302C405.667 148.178 402.961 141.048 401.063 137.279Z"/><path fill="#4286B2" d="M507.809 91.2403C509.63 93.4379 508.715 102.703 509.894 107.053L509.739 107.631C501.226 114.053 490.521 122.477 482.002 128.379C478.142 130.043 477.4 130.571 473.145 130.128C479.003 124.703 482.898 118.491 487.678 112.107C493.909 103.787 499.774 97.7136 507.809 91.2403Z"/><path fill="#4286B2" d="M250.847 314.172C265.596 298.284 275.351 295.099 292.521 283.639C292.455 284.496 292.284 285.867 291.737 286.54C281.374 299.305 269.839 309.529 260.868 323.454L260.567 323.389C257.765 320.237 254.016 317.035 250.847 314.172Z"/><path fill="#473932" d="M831.5 553.039C835.144 551.859 847.067 541.878 852.365 540.306C855.625 539.339 856.797 537.333 860.738 538.94C865.192 542.903 864.246 556.411 866.958 559.854C890.361 566.108 914.413 573.565 935.35 586.02C956.89 598.833 962.97 611.026 956.172 634.973C937.293 701.478 864.04 769.338 793.51 772.535L792.977 772.882C786.838 776.924 781.236 782.031 774.651 786.335C737.611 810.546 702.847 812.61 659.534 806.986C629.217 826.988 599.855 838.024 562.979 830.637C540.381 826.11 528.954 818.285 509.684 807.281C457.352 813.028 424.468 810.556 381.921 776.432C380.471 775.276 379.033 774.104 377.607 772.917C323.973 767.949 285.742 744.576 251.404 703.562C233.569 682.259 211.945 645.158 213.272 616.976C214.692 586.82 272.347 569.952 295.5 563.724C297.033 565.288 298.599 571.817 299.369 574.339C301.777 581.229 304.087 588.152 306.297 595.107L307.506 598.507L310.803 596.056L312.382 600.021C314.764 602.166 315.231 602.416 318.102 603.808C320.309 604.538 323.665 606.452 325.933 607.55C330.395 609.709 333.046 610.278 337.609 611.563L339.171 611.892C342.163 610.759 346.306 605.042 348.429 602.35C349.626 600.941 351.851 597.475 352.99 595.791C352.193 592.77 350.426 589.038 349.17 586.058C351.457 586.583 354.317 587.155 356.512 587.841L357.327 589.535L357.612 589.414C360.439 595.112 372.283 615.666 376.483 620.317C376.974 620.453 377.465 620.589 377.956 620.725C385.993 630.541 395.04 641.731 403.364 651.053C406.642 654.723 414.841 659.995 417.014 662.898L416.831 664.328C420.115 666.238 424.774 669.915 427.943 672.269C442.027 669.832 456.034 666.899 470.414 668.399C483.21 669.7 494.532 675.363 506.247 680.172C527.187 688.769 548.419 696.717 570.99 699.708C601.771 703.816 632.829 693.797 660.682 681.565C674.174 675.64 686.219 668.771 701.385 667.791C714.68 666.932 727.367 669.935 740.33 672.439C740.577 672.138 748.628 666.548 749.6 665.836C762.008 656.747 772.25 645.946 781.993 634.084C782.614 633.055 783.948 631.328 784.697 630.288C791.598 622.136 797.131 614.71 803.226 605.954C803.686 605.542 806.864 600.181 807.94 598.741C810.158 599.184 809.526 598.745 810.968 600.175L811.143 599.844C811.262 599.686 811.381 599.529 811.499 599.371C815.085 597.004 814.538 593.872 818.101 591.001C818.675 588.486 828.116 572.758 829.995 569.334C829.636 564.391 832.326 560.338 830.638 555.719C830.638 555.719 831.417 553.297 831.5 553.039Z"/><defs><linearGradient id="gradient_13" gradientUnits="userSpaceOnUse" x1="883.31195" y1="600.25854" x2="796.20233" y2="648.65448"><stop offset="0" stop-color="#70899F"/><stop offset="1" stop-color="#BAC8CF"/></linearGradient></defs><path fill="url(#gradient_13)" d="M831.5 553.039C835.144 551.859 847.067 541.878 852.365 540.306C855.625 539.339 856.797 537.333 860.738 538.94C865.192 542.903 864.246 556.411 866.958 559.854C866.989 565.041 866.655 567.101 865.918 572.188C864.468 579.777 862.956 596.794 856.963 600.761C856.4 601.127 855.826 601.474 855.24 601.802L855.933 601.936C861.088 602.972 863.026 605.621 866.055 606.26C870.859 607.274 878.014 604.432 884.523 604.182C902.736 604.253 914.749 613.749 914.665 632.784C906.393 635.226 900.406 636.267 891.848 637.521C876.776 639.434 857.858 641.049 843.578 644.846C847.76 640.434 852.958 644.104 852.456 638.109C852.487 638.469 855.776 633.336 856.213 632.299C853.651 623.865 831.653 631.16 826.072 632.72C813.974 628.504 806.953 629.683 794.361 631.131C791.001 631.362 786.363 633.047 784.697 630.288C791.598 622.136 797.131 614.71 803.226 605.954C803.686 605.542 806.864 600.181 807.94 598.741C810.158 599.184 809.526 598.745 810.968 600.175L811.143 599.844C811.262 599.686 811.381 599.529 811.499 599.371C815.085 597.004 814.538 593.872 818.101 591.001C818.675 588.486 828.116 572.758 829.995 569.334C829.636 564.391 832.326 560.338 830.638 555.719C830.638 555.719 831.417 553.297 831.5 553.039Z"/><path fill="#B0F3F1" d="M831.5 553.039C835.144 551.859 847.067 541.878 852.365 540.306C855.625 539.339 856.797 537.333 860.738 538.94C865.192 542.903 864.246 556.411 866.958 559.854C866.989 565.041 866.655 567.101 865.918 572.188C864.468 579.777 862.956 596.794 856.963 600.761C856.4 601.127 855.826 601.474 855.24 601.802L853.254 602.494C846.656 609.916 832.889 615.407 823.407 617.977C817.54 612.926 814.52 606.594 811.143 599.844C811.262 599.686 811.381 599.529 811.499 599.371C815.085 597.004 814.538 593.872 818.101 591.001C818.675 588.486 828.116 572.758 829.995 569.334C829.636 564.391 832.326 560.338 830.638 555.719C830.638 555.719 831.417 553.297 831.5 553.039Z"/><path fill="#50D1DD" d="M823.664 591.692C826.398 590.18 831.137 587.12 834.005 586.806L835.108 587.305C835.464 588.724 835.31 589.093 835.066 590.505L836.174 590.69C837.027 592.817 836.68 594.735 836.546 597.071L837.411 596.16C838.926 595.727 839.428 595.429 840.79 594.726L842.021 597.394C843.044 598.635 843.465 599.072 844.221 600.54L845.354 601.15L846.904 600.536L847.623 601.269C849.003 600.676 850.264 599.972 851.588 599.266L853.254 602.494C846.656 609.916 832.889 615.407 823.407 617.977C817.54 612.926 814.52 606.594 811.143 599.844C811.262 599.686 811.381 599.529 811.499 599.371C815.085 597.004 814.538 593.872 818.101 591.001C817.508 592.828 816.926 594.011 817.197 595.899C818.383 595.942 822.168 592.754 823.664 591.692Z"/><path fill="#B4E9EA" d="M820.292 606.955C819.121 605.468 817.032 602.282 817.35 600.331C828.413 599.451 823.615 602.2 833.92 596.155L832.166 604.27C831.713 605.852 831.014 608.631 831.798 610.083L829.134 611.343C823.51 613.353 823.218 611.601 820.292 606.955Z"/><path fill="#BED6D7" d="M820.292 606.955C822.831 606.133 824.95 605.509 827.351 606.686C828.791 608.076 829.141 609.317 829.134 611.343C823.51 613.353 823.218 611.601 820.292 606.955Z"/><path fill="#BED6D7" d="M835.066 590.505L836.174 590.69C837.027 592.817 836.68 594.735 836.546 597.071L837.411 596.16C838.926 595.727 839.428 595.429 840.79 594.726L842.021 597.394C843.044 598.635 843.465 599.072 844.221 600.54L845.354 601.15L846.904 600.536L847.623 601.269C843.256 604.716 836.923 607.568 831.798 610.083C831.014 608.631 831.713 605.852 832.166 604.27L833.92 596.155L835.066 590.505Z"/><path fill="#CDF0EF" d="M835.066 590.505L836.174 590.69C837.027 592.817 836.68 594.735 836.546 597.071C835.929 599.861 835.594 602.876 833.339 604.679L832.166 604.27L833.92 596.155L835.066 590.505Z"/><path fill="#6CAFC1" d="M831.5 553.039C835.144 551.859 847.067 541.878 852.365 540.306C855.625 539.339 856.797 537.333 860.738 538.94C865.192 542.903 864.246 556.411 866.958 559.854C866.989 565.041 866.655 567.101 865.918 572.188C864.468 579.777 862.956 596.794 856.963 600.761C856.4 601.127 855.826 601.474 855.24 601.802L853.254 602.494L851.588 599.266C853.442 598.243 855.032 597.05 856.758 595.828C857.25 595.137 861.22 574.938 861.951 571.95C862.132 570.342 862.639 568.693 863.063 567.117L863.221 563.234C861.665 556.858 860.236 548 858.592 542.328C852.665 545.213 841.86 550.717 836.295 554.129C834.478 559.066 832.506 564.756 829.995 569.334C829.636 564.391 832.326 560.338 830.638 555.719C830.638 555.719 831.417 553.297 831.5 553.039Z"/><path fill="#50D1DD" d="M849.466 573.313C851.31 573.239 857.227 568.247 863.063 567.117C862.639 568.693 862.132 570.342 861.951 571.95C861.22 574.938 857.25 595.137 856.758 595.828C855.032 597.05 853.442 598.243 851.588 599.266C850.264 599.972 849.003 600.676 847.623 601.269L846.904 600.536L845.354 601.15L844.221 600.54C843.465 599.072 843.044 598.635 842.021 597.394C844.624 597.139 844.564 597.586 846.134 596.199L846.239 593.979C846.099 590.988 845.815 588.409 846.496 585.488L846.56 584.908C847.506 581.037 848.475 577.172 849.466 573.313Z"/><path fill="#89D0D3" d="M846.496 585.488L847.654 585.313C845.605 595.388 853.37 592.18 856.758 595.828C855.032 597.05 853.442 598.243 851.588 599.266C850.264 599.972 849.003 600.676 847.623 601.269L846.904 600.536L845.354 601.15L844.221 600.54C843.465 599.072 843.044 598.635 842.021 597.394C844.624 597.139 844.564 597.586 846.134 596.199L846.239 593.979C846.099 590.988 845.815 588.409 846.496 585.488Z"/><path fill="#8FE2E6" d="M849.466 573.313C851.31 573.239 857.227 568.247 863.063 567.117C862.639 568.693 862.132 570.342 861.951 571.95C850.85 572.535 850.426 575.395 847.654 585.313L846.496 585.488L846.56 584.908C847.506 581.037 848.475 577.172 849.466 573.313Z"/><path fill="#50D1DD" d="M836.228 585.425C836.911 580.669 839.71 560.864 844.906 560.807C847.928 563.036 848.289 566.788 849.237 570.543L849.466 573.313C848.475 577.172 847.506 581.037 846.56 584.908L846.496 585.488C845.815 588.409 846.099 590.988 846.239 593.979L846.134 596.199C844.564 597.586 844.624 597.139 842.021 597.394L840.79 594.726C838.997 590.737 840.606 590.75 836.228 585.425Z"/><path fill="#57BFD7" d="M846.239 593.979C844.487 593.217 843.429 593.032 842.525 591.494C841.915 587.793 843.114 586.563 846.56 584.908L846.496 585.488C845.815 588.409 846.099 590.988 846.239 593.979Z"/><path fill="#B4E9EA" d="M849.237 570.543C850.026 570.289 850.527 570.177 851.15 569.62C854.317 566.79 859.161 564.507 863.221 563.234L863.063 567.117C857.227 568.247 851.31 573.239 849.466 573.313L849.237 570.543Z"/><defs><linearGradient id="gradient_14" gradientUnits="userSpaceOnUse" x1="910.20813" y1="614.85779" x2="880.71979" y2="622.51031"><stop offset="0" stop-color="#4E6C88"/><stop offset="1" stop-color="#839AAA"/></linearGradient></defs><path fill="url(#gradient_14)" d="M884.523 604.182C902.736 604.253 914.749 613.749 914.665 632.784C906.393 635.226 900.406 636.267 891.848 637.521C891.722 633.266 892.674 626.208 892.723 621.953C892.901 606.588 878.474 607.849 876.837 606.259C879.45 605.096 881.39 606.302 884.523 604.182Z"/><path fill="#AABCC6" d="M867.099 615.5C871.099 615.4 874.596 615.125 878.321 616.928C883.116 619.248 886.135 624.295 880.239 627.427C878.278 628.469 877.179 628.623 874.961 628.957C870.946 629.047 863.618 629.221 860.089 626.962C855.432 623.981 858.349 620.107 860.605 616.779C862.81 616.072 864.818 615.848 867.099 615.5Z"/><path fill="#AABCC6" d="M357.327 589.535L357.612 589.414C360.439 595.112 372.283 615.666 376.483 620.317C376.974 620.453 377.465 620.589 377.956 620.725C385.993 630.541 395.04 641.731 403.364 651.053C406.642 654.723 414.841 659.995 417.014 662.898L416.831 664.328C420.115 666.238 424.774 669.915 427.943 672.269C408.148 675.784 376.943 677.662 359.802 666.22C350.508 662.32 344.019 654.449 335.411 649.45C326.725 644.405 317.536 643.006 307.768 641.965C304.543 638.687 300.107 634.817 298.555 630.422C296.689 625.135 299.443 615.276 305.746 614.047C318.168 611.625 328.502 615.587 339.31 621.351L339.595 620.798C337.444 619.125 335.335 618.267 332.874 617.117C335.82 615.572 346.159 620.975 347.387 610.173C354.178 601.368 356.047 600.509 357.327 589.535Z"/><path fill="#BED6D7" d="M307.768 641.965C304.543 638.687 300.107 634.817 298.555 630.422C296.689 625.135 299.443 615.276 305.746 614.047C318.168 611.625 328.502 615.587 339.31 621.351C342.68 625.225 342.482 626.353 343.144 631.572C346.697 631.564 351.285 631.317 354.61 632.417C365.12 635.892 378.32 644.873 374.983 657.774C372.769 666.33 362.337 662.713 359.005 664.523C359.765 665.614 359.702 665.116 359.802 666.22C350.508 662.32 344.019 654.449 335.411 649.45C326.725 644.405 317.536 643.006 307.768 641.965Z"/><path fill="#BED6D7" d="M376.483 620.317C376.974 620.453 377.465 620.589 377.956 620.725C385.993 630.541 395.04 641.731 403.364 651.053C406.642 654.723 414.841 659.995 417.014 662.898L416.831 664.328C409.448 664.225 388.442 667.209 385.961 657.307C384.029 649.597 395.464 649.203 397.543 646.268C393.829 639.929 381.542 629.015 376.483 620.317Z"/><path fill="#BED6D7" d="M826.072 632.72C831.653 631.16 853.651 623.865 856.213 632.299C855.776 633.336 852.487 638.469 852.456 638.109C852.958 644.104 847.76 640.434 843.578 644.846C830.543 650.323 827.862 654.631 816.769 661.846C792.722 677.488 767.267 676.519 740.33 672.439C740.577 672.138 748.628 666.548 749.6 665.836C762.008 656.747 772.25 645.946 781.993 634.084C782.614 633.055 783.948 631.328 784.697 630.288C786.363 633.047 791.001 631.362 794.361 631.131C806.953 629.683 813.974 628.504 826.072 632.72Z"/><path fill="#AABCC6" d="M781.993 634.084C782.614 633.055 783.948 631.328 784.697 630.288C786.363 633.047 791.001 631.362 794.361 631.131C791.16 632.463 785.488 634.732 781.993 634.084Z"/><defs><linearGradient id="gradient_15" gradientUnits="userSpaceOnUse" x1="266.93976" y1="596.74963" x2="302.60205" y2="640.55688"><stop offset="0" stop-color="#70889F"/><stop offset="1" stop-color="#9EB0BE"/></linearGradient></defs><path fill="url(#gradient_15)" d="M349.17 586.058C351.457 586.583 354.317 587.155 356.512 587.841L357.327 589.535C356.047 600.509 354.178 601.368 347.387 610.173C346.159 620.975 335.82 615.572 332.874 617.117C335.335 618.267 337.444 619.125 339.595 620.798L339.31 621.351C328.502 615.587 318.168 611.625 305.746 614.047C299.443 615.276 296.689 625.135 298.555 630.422C300.107 634.817 304.543 638.687 307.768 641.965C290.48 641.258 264.829 636.905 248.998 630.464C249.095 624.716 248.967 617.624 251.246 612.357C256.885 599.328 273.24 593.126 286.51 592.568C292.708 592.307 300.607 592.697 306.297 595.107L307.506 598.507L310.803 596.056L312.382 600.021C314.764 602.166 315.231 602.416 318.102 603.808C320.309 604.538 323.665 606.452 325.933 607.55C330.395 609.709 333.046 610.278 337.609 611.563L339.171 611.892C342.163 610.759 346.306 605.042 348.429 602.35C349.626 600.941 351.851 597.475 352.99 595.791C352.193 592.77 350.426 589.038 349.17 586.058Z"/><path fill="#50D1DD" d="M349.17 586.058C351.457 586.583 354.317 587.155 356.512 587.841L357.327 589.535C356.047 600.509 354.178 601.368 347.387 610.173C345.252 612.83 343.726 614.656 341.349 617.082C331.248 615.827 321.584 612.213 313.138 606.533L315.719 604.138C316.702 604.163 317.166 604.111 318.102 603.808C320.309 604.538 323.665 606.452 325.933 607.55C330.395 609.709 333.046 610.278 337.609 611.563L339.171 611.892C342.163 610.759 346.306 605.042 348.429 602.35C349.626 600.941 351.851 597.475 352.99 595.791C352.193 592.77 350.426 589.038 349.17 586.058Z"/><path fill="#57BFD7" d="M310.803 596.056L312.382 600.021C314.764 602.166 315.231 602.416 318.102 603.808C317.166 604.111 316.702 604.163 315.719 604.138L313.138 606.533C310.508 605.481 308.046 601.206 307.506 598.507L310.803 596.056Z"/><path fill="#153D62" d="M865.918 572.188C866.79 574.566 868.783 574.992 871.134 575.778C886.059 580.769 935.12 596.558 940.54 611.273C941.185 613.002 941.084 614.921 940.261 616.572C937.027 623.217 922.001 630.537 915.029 632.675L914.665 632.784C914.749 613.749 902.736 604.253 884.523 604.182C878.014 604.432 870.859 607.274 866.055 606.26C863.026 605.621 861.088 602.972 855.933 601.936L855.24 601.802C855.826 601.474 856.4 601.127 856.963 600.761C862.956 596.794 864.468 579.777 865.918 572.188Z"/><path fill="#153D62" d="M299.369 574.339C301.777 581.229 304.087 588.152 306.297 595.107C300.607 592.697 292.708 592.307 286.51 592.568C273.24 593.126 256.885 599.328 251.246 612.357C248.967 617.624 249.095 624.716 248.998 630.464C247.595 630.005 246.267 629.152 245.025 628.36C240.498 625.473 231.91 620.385 230.94 614.862C228.043 598.354 286.935 583.653 296.18 577.867C297.511 577.035 298.479 575.599 299.369 574.339Z"/><defs><linearGradient id="gradient_16" gradientUnits="userSpaceOnUse" x1="585.05371" y1="815.57678" x2="585.28479" y2="694.17169"><stop offset="0" stop-color="#3985B7"/><stop offset="1" stop-color="#44A3CC"/></linearGradient></defs><path fill="url(#gradient_16)" d="M738.694 686.954C738.83 687.019 738.965 687.084 739.1 687.15C766.34 692.848 797.221 691.939 821.325 676.759C832.956 669.434 838.133 662.2 850.487 658.44C859.856 655.588 867.689 655.544 877.098 654.339C890.891 653.038 904.129 650.88 917.389 646.747C925.216 644.307 931.265 640.929 938.265 636.836C936.35 643.747 934.431 648.278 931.358 654.611C930.274 656.901 929.247 659.199 927.915 661.355C916.821 683.054 891.483 712.818 871.138 726.323C855.827 738.089 833.259 748.922 814.468 752.953C808.783 754.464 794.96 755.966 789.078 755.836C781.231 762.84 772.744 769.093 763.729 774.512C734.436 792.505 712.376 795.241 678.414 793.521C676.927 793.445 675.442 793.342 673.959 793.213C666.492 792.415 660.664 791.656 653.082 792.212C649.574 796.43 632.57 805.117 627.092 807.607C595.844 821.811 564.883 819.089 534.795 803.74C528.591 800.575 520.343 794.135 514.629 791.994L513.979 791.755C505.962 791.972 496.839 793.588 489.792 793.687C482.138 793.304 472.708 794.16 463.471 793.654C430.504 791.85 405.347 776.074 380.313 755.641C374.25 755.342 360.677 754.943 355.488 753.355C310.2 744.119 263.723 704.378 243.629 663.335C241.776 660.516 240.805 658.457 239.331 655.407C237.723 653.37 235.698 647.722 234.69 645.054C233.672 642.674 233.007 639.681 232.34 637.138C235.523 639.244 240.17 641.595 243.608 643.461C260.339 650.721 276.418 653.638 294.496 655.426C303.795 656.357 312.278 656.74 321.349 659.172C332.045 662.04 337.832 669.549 346.392 675.319C368.507 690.224 397.852 692.036 423.503 688.188C440.289 685.67 456.126 680.947 473.154 683.58C486.435 685.586 499.918 693.247 512.447 698.344C565.738 720.025 602.358 721.327 656.039 699.361C658.423 698.386 664.343 696.024 666.433 694.769C667.621 692.413 672.624 690.547 675.231 689.332C674.242 688.684 673.17 690.063 670.736 690.471C671.377 689.543 675.271 687.763 676.619 687.092C691.714 679.577 707.615 680.229 723.862 681.967L721.56 682.412C724.998 683.294 736.797 685.06 738.694 686.954Z"/><path fill="#50D1DD" d="M738.694 686.954C738.83 687.019 738.965 687.084 739.1 687.15C766.34 692.848 797.221 691.939 821.325 676.759C832.956 669.434 838.133 662.2 850.487 658.44C859.856 655.588 867.689 655.544 877.098 654.339C890.891 653.038 904.129 650.88 917.389 646.747C925.216 644.307 931.265 640.929 938.265 636.836C936.35 643.747 934.431 648.278 931.358 654.611C930.274 656.901 929.247 659.199 927.915 661.355C916.821 683.054 891.483 712.818 871.138 726.323C855.827 738.089 833.259 748.922 814.468 752.953C818.837 746.371 824.111 740.743 828.709 734.353C834.23 726.548 838.758 718.298 842.652 709.537C844.561 705.242 848.426 695.974 843.666 692.144C841.704 690.565 839.108 690.955 836.73 691.159C837.253 689.863 838.298 688.619 839.151 687.45C832.067 689.777 831.061 694.313 824.086 697.806C822.931 698.57 820.849 700.119 819.653 700.447C800.223 707.867 779.114 719.52 757.559 714.014C744.588 710.985 735.255 706.08 723.69 702.612C702.062 696.126 671.185 713.577 651.01 721.002C630.172 728.117 605.191 738.03 583.227 738.948C563.407 739.778 541.26 727.518 523.07 722.408C522.886 722.292 522.702 722.175 522.518 722.059C506.215 715.742 491.014 707.813 473.912 703.998C455.859 699.971 448.49 702.682 431.995 709.088C426.934 711.053 417.61 713.011 411.97 714.442C400.69 716.591 390.582 715.19 379.699 711.75C376.41 710.957 373.764 709.972 370.576 708.831C363.483 706.417 353.915 700.749 348.825 699.782C348.518 699.621 348.211 699.46 347.903 699.299L347.393 699.014C340.876 695.419 334.911 688.852 326.777 684.079C317.116 677.515 308.435 676.53 297.201 674.776C290.682 673.846 273.044 672.174 266.423 671.887C258.466 670.104 250.795 667.226 243.629 663.335C241.776 660.516 240.805 658.457 239.331 655.407C237.723 653.37 235.698 647.722 234.69 645.054C233.672 642.674 233.007 639.681 232.34 637.138C235.523 639.244 240.17 641.595 243.608 643.461C260.339 650.721 276.418 653.638 294.496 655.426C303.795 656.357 312.278 656.74 321.349 659.172C332.045 662.04 337.832 669.549 346.392 675.319C368.507 690.224 397.852 692.036 423.503 688.188C440.289 685.67 456.126 680.947 473.154 683.58C486.435 685.586 499.918 693.247 512.447 698.344C565.738 720.025 602.358 721.327 656.039 699.361C658.423 698.386 664.343 696.024 666.433 694.769C667.621 692.413 672.624 690.547 675.231 689.332C674.242 688.684 673.17 690.063 670.736 690.471C671.377 689.543 675.271 687.763 676.619 687.092C691.714 679.577 707.615 680.229 723.862 681.967L721.56 682.412C724.998 683.294 736.797 685.06 738.694 686.954Z"/><defs><linearGradient id="gradient_17" gradientUnits="userSpaceOnUse" x1="813.34943" y1="715.64227" x2="893.2204" y2="707.93658"><stop offset="0" stop-color="#2A6FA9"/><stop offset="1" stop-color="#4DA8CF"/></linearGradient></defs><path fill="url(#gradient_17)" d="M916.86 667.112C920.377 665 924.229 663.182 927.915 661.355C916.821 683.054 891.483 712.818 871.138 726.323C855.827 738.089 833.259 748.922 814.468 752.953C818.837 746.371 824.111 740.743 828.709 734.353C834.23 726.548 838.758 718.298 842.652 709.537C844.561 705.242 848.426 695.974 843.666 692.144C841.704 690.565 839.108 690.955 836.73 691.159C837.253 689.863 838.298 688.619 839.151 687.45C853.843 674.635 865.668 673.969 884.672 672.605C889.148 671.956 895.169 672.21 900.758 671.449C905.781 670.529 911.868 668.567 916.86 667.112Z"/><defs><linearGradient id="gradient_18" gradientUnits="userSpaceOnUse" x1="883.09912" y1="691.61847" x2="915.60364" y2="681.47363"><stop offset="0" stop-color="#52BDD8"/><stop offset="1" stop-color="#9BE7EC"/></linearGradient></defs><path fill="url(#gradient_18)" d="M916.86 667.112C920.377 665 924.229 663.182 927.915 661.355C916.821 683.054 891.483 712.818 871.138 726.323C873.801 719.586 882.144 714.679 887.906 707.512C888.117 705.9 888.898 705.213 889.664 703.774C887.446 703.936 888.237 704.199 886.622 702.995C886.035 701.133 885.989 701.993 886.435 700.337C887.113 696.395 890.193 676.047 889.958 673.658L886.924 672.841L884.672 672.605C889.148 671.956 895.169 672.21 900.758 671.449C905.781 670.529 911.868 668.567 916.86 667.112Z"/><path fill="#4286B2" d="M916.86 667.112C920.377 665 924.229 663.182 927.915 661.355C916.821 683.054 891.483 712.818 871.138 726.323C873.801 719.586 882.144 714.679 887.906 707.512C893.941 700.914 901.213 692.714 905.854 685.087C910.055 678.183 911.827 673.822 916.86 667.112Z"/><path fill="#57BFD7" d="M884.672 672.605C889.148 671.956 895.169 672.21 900.758 671.449C902.249 675.666 898.308 684.159 894.986 686.791L894.959 686.417C893.674 687.655 894.079 687.658 892.659 687.828C891.157 691.834 889.986 697.958 886.435 700.337C887.113 696.395 890.193 676.047 889.958 673.658L886.924 672.841L884.672 672.605Z"/><path fill="#50D1DD" d="M884.672 672.605C889.148 671.956 895.169 672.21 900.758 671.449C902.249 675.666 898.308 684.159 894.986 686.791L894.959 686.417C893.674 687.655 894.079 687.658 892.659 687.828C894.027 680.913 895.267 682.441 895.928 672.948C893.361 672.721 889.598 672.836 886.924 672.841L884.672 672.605Z"/><path fill="#50D1DD" d="M850.949 710.064C853.479 709.165 856.269 710.411 857.289 712.895C858.309 715.378 857.2 718.225 854.769 719.364C853.088 720.152 851.109 719.95 849.622 718.84C848.134 717.729 847.378 715.89 847.656 714.054C847.934 712.218 849.199 710.685 850.949 710.064Z"/><path fill="#50D1DD" d="M868.062 701.681C868.841 701.283 869.775 701.341 870.5 701.831C871.225 702.321 871.627 703.166 871.548 704.038C871.47 704.909 870.924 705.669 870.124 706.022C868.933 706.547 867.54 706.03 866.982 704.854C866.424 703.678 866.902 702.272 868.062 701.681Z"/><path fill="#B0F3F1" d="M239.331 655.407C239.581 655.442 239.831 655.478 240.081 655.513C251.52 660.965 263.357 663.52 275.561 666.798C290.176 670.724 305.943 669.193 319.89 675.24C329.526 679.341 333.52 684.625 341.031 689.422C352.533 696.205 366.671 701.277 379.452 704.84C399.73 710.494 421.109 705.13 441.142 700.234C465.277 694.336 477.482 698.689 499.75 707.747C528.247 719.338 559.67 732.554 591.033 731.299C617.364 729.057 642.542 719.654 666.741 709.581C678.104 704.851 691.5 698.307 703.686 697.305C722.017 695.799 741.286 704.061 759.391 706.817C782.767 710.375 800.767 702.117 821.637 693.64C821.39 696.379 821.358 696.449 824.086 697.806C822.931 698.57 820.849 700.119 819.653 700.447C800.223 707.867 779.114 719.52 757.559 714.014C744.588 710.985 735.255 706.08 723.69 702.612C702.062 696.126 671.185 713.577 651.01 721.002C630.172 728.117 605.191 738.03 583.227 738.948C563.407 739.778 541.26 727.518 523.07 722.408C522.886 722.292 522.702 722.175 522.518 722.059C506.215 715.742 491.014 707.813 473.912 703.998C455.859 699.971 448.49 702.682 431.995 709.088C426.934 711.053 417.61 713.011 411.97 714.442C400.69 716.591 390.582 715.19 379.699 711.75C376.41 710.957 373.764 709.972 370.576 708.831C363.483 706.417 353.915 700.749 348.825 699.782C348.518 699.621 348.211 699.46 347.903 699.299L347.393 699.014C340.876 695.419 334.911 688.852 326.777 684.079C317.116 677.515 308.435 676.53 297.201 674.776C290.682 673.846 273.044 672.174 266.423 671.887C258.466 670.104 250.795 667.226 243.629 663.335C241.776 660.516 240.805 658.457 239.331 655.407Z"/><path fill="#B0F3F1" d="M821.637 693.64C832.552 688.427 839.251 679.294 850.459 674.561C860.997 670.112 873.048 669.551 884.361 667.906C893.682 666.551 901.9 664.193 910.773 662.186C916.443 660.903 928.7 654.369 931.358 654.611C930.274 656.901 929.247 659.199 927.915 661.355C924.229 663.182 920.377 665 916.86 667.112C911.868 668.567 905.781 670.529 900.758 671.449C895.169 672.21 889.148 671.956 884.672 672.605C865.668 673.969 853.843 674.635 839.151 687.45C832.067 689.777 831.061 694.313 824.086 697.806C821.358 696.449 821.39 696.379 821.637 693.64Z"/><path fill="#3C3B3B" d="M666.433 694.769C667.621 692.413 672.624 690.547 675.231 689.332C674.242 688.684 673.17 690.063 670.736 690.471C671.377 689.543 675.271 687.763 676.619 687.092C691.714 679.577 707.615 680.229 723.862 681.967L721.56 682.412C724.998 683.294 736.797 685.06 738.694 686.954L738.087 686.887C732.642 686.259 726.769 684.614 721.202 683.707C707.293 681.441 697.302 682.062 684.115 686.805C677.982 689.011 671.556 692.892 666.433 694.769Z"/><path fill="#8FE2E6" d="M232.34 637.138C235.523 639.244 240.17 641.595 243.608 643.461C243.225 645.388 243.296 645.651 241.927 646.906C239.356 647.675 236.938 646.359 234.69 645.054C233.672 642.674 233.007 639.681 232.34 637.138Z"/><path fill="#398CBC" d="M243.629 663.335C250.795 667.226 258.466 670.104 266.423 671.887C273.044 672.174 290.682 673.846 297.201 674.776C308.435 676.53 317.116 677.515 326.777 684.079C328.688 688.356 332.292 687.805 333.84 691.197C317.715 692.518 326.601 706.97 330.419 715.804C333.897 723.849 338.91 731.358 344.127 738.348C346.492 741.541 354.784 750.512 355.488 753.355C310.2 744.119 263.723 704.378 243.629 663.335Z"/><defs><linearGradient id="gradient_19" gradientUnits="userSpaceOnUse" x1="287.66714" y1="686.0434" x2="272.18835" y2="687.77734"><stop offset="0" stop-color="#59BDD6"/><stop offset="1" stop-color="#8ADFE8"/></linearGradient></defs><path fill="url(#gradient_19)" d="M266.423 671.887C273.044 672.174 290.682 673.846 297.201 674.776C295.438 675.135 293.724 675.489 291.947 675.787C292.388 687.02 295.623 692.452 301.001 702.17C301.517 703.101 301.107 702.588 301.775 703.283C299.758 704.804 299.451 704.487 298.871 706.408C299.651 708.106 300.627 709.004 301.865 710.381C299.649 710.111 298.151 707.826 298.127 705.631C299.705 703.291 299.714 699.39 297.515 697.591L297.262 697.913L298.069 700.824L296.799 702.596C294.646 701.079 297.561 701.897 296.837 700.536C296.128 699.203 295.672 698.419 295.362 696.861L296.778 696.566C295.862 694.927 293.004 689.979 292.469 688.425C291.277 684.955 291.201 677.669 288.162 674.886C286.707 674.632 286.884 674.491 285.555 674.832C286.494 683.628 291.918 692.831 287.318 700.822L286.91 701.522C287.26 704.198 297.585 715.473 299.966 717.94L299.927 718.485C293.625 716.096 270.216 678.948 266.423 671.887Z"/><path fill="#50D1DD" d="M301.775 703.283C303.998 704.4 303.378 703.748 304.719 705.701C304.377 708.137 303.851 708.609 301.865 710.381C300.627 709.004 299.651 708.106 298.871 706.408C299.451 704.487 299.758 704.804 301.775 703.283Z"/><path fill="#50D1DD" d="M309.284 714.496C310.696 713.75 312.445 714.235 313.271 715.602C314.097 716.969 313.713 718.742 312.396 719.645C311.474 720.277 310.278 720.346 309.289 719.826C308.3 719.305 307.68 718.28 307.679 717.163C307.679 716.045 308.296 715.019 309.284 714.496Z"/><defs><linearGradient id="gradient_20" gradientUnits="userSpaceOnUse" x1="408.78217" y1="724.04138" x2="364.1604" y2="738.49371"><stop offset="0" stop-color="#43B9D6"/><stop offset="1" stop-color="#ADF0ED"/></linearGradient></defs><path fill="url(#gradient_20)" d="M348.825 699.782C353.915 700.749 363.483 706.417 370.576 708.831C373.764 709.972 376.41 710.957 379.699 711.75C390.582 715.19 400.69 716.591 411.97 714.442C410.201 716.075 408.204 716.211 405.693 716.92C405.222 720.975 414.731 738.884 417.082 743.585C419.027 747.474 423.535 753.035 425.38 757.58L424.982 757.897C422.898 754.743 417.075 745.245 414.845 742.918C413.649 752.424 413.928 763.395 402.936 766.856C403.98 767.674 404.17 767.841 405.053 768.827L404.118 768.808C384.133 756.435 371.525 739.699 360.171 719.474C357.153 714.096 352.863 704.119 348.825 699.782Z"/><path fill="#89D0D3" d="M370.576 708.831C373.764 709.972 376.41 710.957 379.699 711.75C377.897 713.156 375.057 713.776 374.311 715.777C373.232 718.671 378.113 723.016 380.082 726.556L379.701 726.813C377.82 725.565 369.711 714.696 368.719 711.481C369.134 709.644 368.886 710.285 370.576 708.831Z"/><defs><linearGradient id="gradient_21" gradientUnits="userSpaceOnUse" x1="755.91815" y1="726.19513" x2="809.12073" y2="737.86188"><stop offset="0" stop-color="#3EB3D3"/><stop offset="1" stop-color="#A8F2ED"/></linearGradient></defs><path fill="url(#gradient_21)" d="M757.559 714.014C779.114 719.52 800.223 707.867 819.653 700.447C809.093 724.267 796.217 744.045 776.553 761.286C774.029 763.498 768.302 768.487 765.36 769.218C765.845 768.089 767.619 767.2 768.83 766.38C768.18 764.856 768.126 765.151 767.137 764.068C758.703 754.838 763.529 739.497 754.953 729.927C753.023 733.668 746.614 746.893 743.967 748.671C746.459 744.008 760.051 719.768 759.373 716.019L757.559 714.014Z"/><path fill="#8FE2E6" d="M798.834 712.573C801.005 722.832 784.045 730.669 780.851 744.16C778.75 735.451 793.223 727.402 795.124 719.218C795.467 717.742 797.896 713.863 798.834 712.573Z"/><path fill="#57BFD7" d="M523.07 722.408C541.26 727.518 563.407 739.778 583.227 738.948C605.191 738.03 630.172 728.117 651.01 721.002C648.321 724.022 641.616 725.907 637.528 727.645C636.398 734.557 635.017 741.426 633.387 748.237C632.212 753.047 630.512 757.937 629.727 762.757L628.931 763.104C628.81 761.916 631.422 751.824 632.218 750.582C629.361 749.163 617.29 752.835 613.225 753.221C594.843 754.963 575.891 753.584 557.607 751.29C550.766 750.431 543.217 746.752 536.236 746.353C533.938 749.285 538.061 757.93 538.433 761.649L538.245 761.809L537.523 761.041C537.532 760.884 537.546 760.726 537.55 760.569C537.573 759.796 529.738 728.279 528.905 726.026C526.954 725.002 524.538 723.954 523.07 722.408Z"/><path fill="#296E93" d="M653.082 792.212C669.676 776.302 682.075 748.798 688.328 726.904C689 724.548 689.503 722.085 690.76 719.957C694.512 713.582 705.659 716.167 704.317 724.224C700.397 747.754 687.986 773.958 673.959 793.213C666.492 792.415 660.664 791.656 653.082 792.212Z"/><path fill="#296E93" d="M489.792 793.687C491.481 793.305 491.606 793.29 493.155 792.555C492.662 790.959 485.597 779.862 483.947 777.241C474.36 762.21 468.906 745.973 464.549 728.808C463.049 723.553 465.739 714.51 472.54 715.273C479.991 716.109 478.736 725.337 480.324 729.988C487.143 749.954 498.421 777.342 513.979 791.755C505.962 791.972 496.839 793.588 489.792 793.687Z"/><path fill="#296E93" d="M836.73 691.159C839.108 690.955 841.704 690.565 843.666 692.144C848.426 695.974 844.561 705.242 842.652 709.537C838.758 718.298 834.23 726.548 828.709 734.353C824.111 740.743 818.837 746.371 814.468 752.953C808.783 754.464 794.96 755.966 789.078 755.836C790.504 754.28 792.732 752.526 794.309 751.102C811.707 735.385 823.042 716.625 832.247 695.284C833.315 692.809 834.199 692.064 836.73 691.159Z"/><path fill="#296E93" d="M333.84 691.197C334.63 691.672 336.813 693.005 337.131 693.775C344.926 712.654 354.589 729.935 369.179 744.529C372.776 748.127 376.643 751.9 380.313 755.641C374.25 755.342 360.677 754.943 355.488 753.355C354.784 750.512 346.492 741.541 344.127 738.348C338.91 731.358 333.897 723.849 330.419 715.804C326.601 706.97 317.715 692.518 333.84 691.197Z"/><path fill="#529FC3" d="M726.365 705.156C727.156 705.875 727.143 706.247 727.575 707.312C727.347 711.533 720.94 722.436 718.605 727.42L718.156 727.458C718.05 726.501 725.513 708.86 726.365 705.156Z"/><path fill="#BED6D7" d="M520.873 219.811C523.006 218.977 531.888 217.08 534.363 216.6C563.065 211.026 593.683 210.148 622.717 213.4C633.528 214.611 642.074 217.332 652.275 219.005C666.781 223.052 674.542 226.428 687.878 230.894L699.738 236.105C707.84 240.102 715.824 244.337 723.677 248.803C727.639 251.591 731.752 253.963 735.784 256.797C752.948 268.862 770.486 283.332 783.667 299.757C797.728 317.024 806.079 328.457 816.707 348.092C818.784 352.192 820.976 356.35 822.782 360.567C825.579 367.55 833.734 387.696 835.061 394.591C836.307 398.928 841.958 427.926 842.611 428.511C843.981 430.155 844.592 431.021 844.405 433.229C844.292 434.481 844.105 435.726 843.846 436.956C843.408 442.474 844.636 453.068 844.937 459.088C845.248 476.252 844.433 490.354 841.558 507.389L840.617 513.404C839.705 516.807 839.225 520.02 838.656 523.483C837.383 528.333 832.821 542.179 832.384 546.449C831.205 548.167 831.216 548.301 830.752 550.376C830.964 551.121 830.982 551.478 831.373 552.107L831.5 553.039C831.417 553.297 830.638 555.719 830.638 555.719C832.326 560.338 829.636 564.391 829.995 569.334C828.116 572.758 818.675 588.486 818.101 591.001C814.538 593.872 815.085 597.004 811.499 599.371C811.381 599.529 811.262 599.686 811.143 599.844L810.968 600.175C809.526 598.745 810.158 599.184 807.94 598.741C806.864 600.181 803.686 605.542 803.226 605.954L802.991 604.837C800.13 603.412 786.677 614.48 785.522 617.889C784.489 620.938 785.069 624.825 782.911 627.674C781.796 628.187 780.899 628.4 780.372 629.45L781.274 630.012C771.593 633.571 768.782 631.337 757.07 637.077C786.251 605.656 805.439 577.295 818.441 535.657C820.973 527.549 823.942 516.857 824.887 508.456C826.721 502.597 827.624 491.039 828.173 484.591C832.108 440.512 823.467 396.221 803.253 356.853C773.59 300.239 722.51 257.845 661.398 239.119C601.711 220.598 529.008 226.723 473.632 255.922C415.611 285.982 372.212 338.225 353.303 400.771C336.214 455.991 341.39 525.113 368.624 576.398C372.4 583.509 378.32 593.55 382.976 600.594C382.91 600.893 382.844 601.192 382.778 601.49C378.363 600.194 360.235 587.849 357.889 589.181C357.784 589.24 357.704 589.336 357.612 589.414L357.327 589.535L356.512 587.841C354.317 587.155 351.457 586.583 349.17 586.058C350.426 589.038 352.193 592.77 352.99 595.791C351.851 597.475 349.626 600.941 348.429 602.35C346.306 605.042 342.163 610.759 339.171 611.892L337.609 611.563C333.046 610.278 330.395 609.709 325.933 607.55C323.665 606.452 320.309 604.538 318.102 603.808C315.231 602.416 314.764 602.166 312.382 600.021L310.803 596.056L307.506 598.507L306.297 595.107C304.087 588.152 301.777 581.229 299.369 574.339C298.599 571.817 297.033 565.288 295.5 563.724C297.463 562.147 302.2 541.495 304.453 537.445C307.921 531.209 311.348 533.617 316.649 536.725C322.096 539.912 327.651 543.082 332.432 547.26C334.792 549.323 336.077 553.437 338.146 554.628L340.23 552.621C341.199 550.112 339.829 548.75 338.501 546.697C338.514 544.796 333.755 528.231 332.848 524.052L331.31 517.452L330.484 514.478C330.162 511.867 329.736 509.792 329.206 507.225C328.317 499.42 327.278 491.696 327.26 483.844C327.293 447.358 328.659 429.906 338.376 394.418C342.092 382.243 346.649 370.34 352.015 358.796L355.303 352.313C362.374 338.863 373.671 319.781 384.036 308.632C390.367 302.186 396.582 293.948 403.382 287.174C417.145 273.46 430.444 263.374 446.393 252.324C458.074 245.253 465.554 241.295 477.789 235.383C481.17 233.659 483.847 232.541 487.378 231.118C499.956 226.021 507.911 223.591 520.873 219.811Z"/><path fill="#50D1DD" d="M295.5 563.724C297.463 562.147 302.2 541.495 304.453 537.445C307.921 531.209 311.348 533.617 316.649 536.725C315.189 538.228 315.1 538.472 314.558 540.503L318.361 543.096C323.536 546.275 330.34 549.853 333.307 555.067C330.184 556.429 331.716 557.063 329.457 559.802C328.183 565.227 326.765 571.016 326.598 576.59C332.088 576.961 340.521 575.79 344.936 577.304L346.947 582.191L349.17 586.058C350.426 589.038 352.193 592.77 352.99 595.791C351.851 597.475 349.626 600.941 348.429 602.35C346.306 605.042 342.163 610.759 339.171 611.892L337.609 611.563C333.046 610.278 330.395 609.709 325.933 607.55C323.665 606.452 320.309 604.538 318.102 603.808C315.231 602.416 314.764 602.166 312.382 600.021L310.803 596.056L307.506 598.507L306.297 595.107C304.087 588.152 301.777 581.229 299.369 574.339C298.599 571.817 297.033 565.288 295.5 563.724Z"/><path fill="#B4E9EA" d="M295.5 563.724C297.463 562.147 302.2 541.495 304.453 537.445C307.921 531.209 311.348 533.617 316.649 536.725C315.189 538.228 315.1 538.472 314.558 540.503L318.361 543.096C323.536 546.275 330.34 549.853 333.307 555.067C330.184 556.429 331.716 557.063 329.457 559.802C328.183 565.227 326.765 571.016 326.598 576.59L325.769 576.596C323.182 573.004 318.929 568.318 317.054 564.618C314.955 563.932 312.536 563.594 310.78 565.236C309.888 569.934 312.522 578.944 313.105 584.021C313.687 589.088 314.263 593.961 314.609 599.095L312.382 600.021L310.803 596.056L307.506 598.507L306.297 595.107C304.087 588.152 301.777 581.229 299.369 574.339C298.599 571.817 297.033 565.288 295.5 563.724Z"/><defs><linearGradient id="gradient_22" gradientUnits="userSpaceOnUse" x1="297.41824" y1="564.88306" x2="313.44427" y2="565.4455"><stop offset="0" stop-color="#42A0B6"/><stop offset="1" stop-color="#5CBBC9"/></linearGradient></defs><path fill="url(#gradient_22)" d="M295.5 563.724C297.463 562.147 302.2 541.495 304.453 537.445C307.921 531.209 311.348 533.617 316.649 536.725C315.189 538.228 315.1 538.472 314.558 540.503C312.681 539.401 310.722 538.211 308.834 537.15L306.188 545.458C301.838 557.608 299.086 563.144 303.762 575.798C306.167 582.309 308.418 589.459 310.803 596.056L307.506 598.507L306.297 595.107C304.087 588.152 301.777 581.229 299.369 574.339C298.599 571.817 297.033 565.288 295.5 563.724Z"/><path fill="#CDF0EF" d="M317.054 564.618C317.235 564.188 317.491 563.605 317.438 563.03C316.949 557.721 324.369 546.785 329.684 553.05C330.942 554.533 329.917 557.741 329.457 559.802C328.183 565.227 326.765 571.016 326.598 576.59L325.769 576.596C323.182 573.004 318.929 568.318 317.054 564.618Z"/><path fill="#CDF0EF" d="M308.834 537.15C310.722 538.211 312.681 539.401 314.558 540.503L318.361 543.096L317.871 544.246C316.273 544.487 315.362 544.008 313.828 543.489L312.943 544.02C312.919 545.611 313.411 549.027 312.914 549.632C307.776 543.587 309.9 547.366 306.188 545.458L308.834 537.15Z"/><defs><linearGradient id="gradient_23" gradientUnits="userSpaceOnUse" x1="334.58575" y1="576.76605" x2="345.72702" y2="603.15997"><stop offset="0" stop-color="#7DDADF"/><stop offset="1" stop-color="#BFE0E1"/></linearGradient></defs><path fill="url(#gradient_23)" d="M326.598 576.59C332.088 576.961 340.521 575.79 344.936 577.304L346.947 582.191L349.17 586.058C350.426 589.038 352.193 592.77 352.99 595.791C351.851 597.475 349.626 600.941 348.429 602.35C346.306 605.042 342.163 610.759 339.171 611.892L337.609 611.563L337.461 610.693C337.576 607.696 338.1 604.264 336.73 601.778C335.319 597.281 330.093 589.281 327.734 583.898C326.648 581.515 326.304 579.165 325.769 576.596L326.598 576.59Z"/><path fill="#B0F3F1" d="M326.598 576.59C332.088 576.961 340.521 575.79 344.936 577.304L346.947 582.191C341.287 582.214 334.711 578.831 328.423 578.634C327.274 581.625 329.416 580.277 327.734 583.898C326.648 581.515 326.304 579.165 325.769 576.596L326.598 576.59Z"/><path fill="#CDF0EF" d="M337.461 610.693L338.202 607.748C342.446 605.163 345.929 601.405 349.073 597.671C349.729 598.936 348.894 600.614 348.429 602.35C346.306 605.042 342.163 610.759 339.171 611.892L337.609 611.563L337.461 610.693Z"/><path fill="#B4E9EA" d="M314.609 599.095C317.343 601.292 331.439 601.979 335.882 602.558L336.73 601.778C338.1 604.264 337.576 607.696 337.461 610.693L337.609 611.563C333.046 610.278 330.395 609.709 325.933 607.55C323.665 606.452 320.309 604.538 318.102 603.808C315.231 602.416 314.764 602.166 312.382 600.021L314.609 599.095Z"/><path fill="#296E93" d="M807.94 598.741C815.431 585.457 822.24 572.475 827.812 558.281C828.787 555.797 829.265 553.665 831.373 552.107L831.5 553.039C831.417 553.297 830.638 555.719 830.638 555.719C832.326 560.338 829.636 564.391 829.995 569.334C828.116 572.758 818.675 588.486 818.101 591.001C814.538 593.872 815.085 597.004 811.499 599.371C811.381 599.529 811.262 599.686 811.143 599.844L810.968 600.175C809.526 598.745 810.158 599.184 807.94 598.741Z"/><path fill="#8FE2E6" d="M333.307 555.067L335.071 557.794C338.128 563.931 342.251 571.196 344.936 577.304C340.521 575.79 332.088 576.961 326.598 576.59C326.765 571.016 328.183 565.227 329.457 559.802C331.716 557.063 330.184 556.429 333.307 555.067Z"/><path fill="#6CAFC1" d="M316.649 536.725C322.096 539.912 327.651 543.082 332.432 547.26C334.792 549.323 336.077 553.437 338.146 554.628C339.954 557.21 343.125 564.992 344.558 568.263C340.883 566.2 341.07 561.931 335.071 557.794L333.307 555.067C330.34 549.853 323.536 546.275 318.361 543.096L314.558 540.503C315.1 538.472 315.189 538.228 316.649 536.725Z"/><path fill="#57BFD7" d="M335.071 557.794C341.07 561.931 340.883 566.2 344.558 568.263C346.33 571.585 352.578 584.657 355.235 585.902L356.512 587.841C354.317 587.155 351.457 586.583 349.17 586.058L346.947 582.191L344.936 577.304C342.251 571.196 338.128 563.931 335.071 557.794Z"/><path fill="#153D62" d="M340.23 552.621C345.307 563.121 349.978 574.862 355.235 585.902C352.578 584.657 346.33 571.585 344.558 568.263C343.125 564.992 339.954 557.21 338.146 554.628L340.23 552.621Z"/><path fill="#CDF0EF" d="M842.611 428.511C843.981 430.155 844.592 431.021 844.405 433.229C844.292 434.481 844.105 435.726 843.846 436.956C841.586 436.713 840.525 436.59 839.093 434.987C837.853 431.276 839.133 429.889 842.611 428.511Z"/><path fill="#FAFAF9" d="M417.014 662.898C418.805 664.253 426.988 670.673 428.784 670.617C439.224 670.205 449.603 667.097 460.206 666.833C478.461 666.346 493.777 673.907 510.156 680.577C533.159 689.943 559.545 699.62 584.712 699.758C609.854 699.55 635.024 691.803 657.795 681.633C673.176 674.765 687.392 667.045 704.67 666.442C709.376 666.277 714.306 667.528 719.231 667.097C723.447 664.598 730.266 658.488 734.557 655.109C771.842 626.139 799.835 586.893 815.085 542.208C816.473 538.167 817.894 533.71 819.305 529.712C821.001 524.908 822.217 511.653 824.887 508.456C823.942 516.857 820.973 527.549 818.441 535.657C805.439 577.295 786.251 605.656 757.07 637.077C768.782 631.337 771.593 633.571 781.274 630.012L780.372 629.45C780.899 628.4 781.796 628.187 782.911 627.674C785.069 624.825 784.489 620.938 785.522 617.889C786.677 614.48 800.13 603.412 802.991 604.837L803.226 605.954C797.131 614.71 791.598 622.136 784.697 630.288C783.948 631.328 782.614 633.055 781.993 634.084C772.25 645.946 762.008 656.747 749.6 665.836C748.628 666.548 740.577 672.138 740.33 672.439C727.367 669.935 714.68 666.932 701.385 667.791C686.219 668.771 674.174 675.64 660.682 681.565C632.829 693.797 601.771 703.816 570.99 699.708C548.419 696.717 527.187 688.769 506.247 680.172C494.532 675.363 483.21 669.7 470.414 668.399C456.034 666.899 442.027 669.832 427.943 672.269C424.774 669.915 420.115 666.238 416.831 664.328L417.014 662.898Z"/><path fill="#473932" d="M649.277 427.378C660.187 425.074 670.905 432.027 673.249 442.927C675.592 453.828 668.678 464.571 657.785 466.953C646.837 469.348 636.026 462.391 633.671 451.435C631.315 440.479 638.312 429.694 649.277 427.378Z"/><path fill="#473932" d="M505.302 427.49C516.156 425.436 526.642 432.5 528.815 443.331C530.988 454.161 524.039 464.723 513.232 467.014C506.135 468.519 498.777 466.095 493.965 460.666C489.152 455.238 487.628 447.642 489.974 440.778C492.32 433.913 498.174 428.838 505.302 427.49Z"/><path fill="#473932" d="M551.223 465.693C563.097 464.947 557.722 477.428 571.512 481.288C581.324 483.771 594.768 483.183 602.134 475.287C605.151 472.053 605.889 463.049 612.95 465.938C619.733 468.713 616.925 475.003 614.645 479.926C613.102 482.337 611.211 484.506 609.033 486.364C600.292 493.845 589.747 495.778 577.64 495.258C565.789 494.749 547.136 486.549 547.047 472.13C547.029 469.14 548.93 467.47 551.223 465.693Z"/><path fill="#FAFAF9" d="M716.101 594.635C725.538 593.009 734.504 599.352 736.111 608.792C737.718 618.232 731.357 627.184 721.913 628.773C712.495 630.356 703.574 624.017 701.971 614.604C700.368 605.191 706.69 596.257 716.101 594.635Z"/><path fill="#E1AD97" d="M485.26 475.979C511.958 473.874 519.523 497.62 493.182 502.951C484.32 504.696 469.763 502.091 467.584 491.622C466.988 488.681 467.663 485.626 469.441 483.21C473.114 478.168 479.517 476.834 485.26 475.979Z"/><path fill="#E1AD97" d="M678.411 476.1C704.297 476.851 708.141 499.305 680.344 503.574C651.611 504.269 647.976 477.78 678.411 476.1Z"/><path fill="#FAFAF9" d="M737.554 580.303C740.392 578.842 743.877 579.97 745.32 582.817C746.763 585.664 745.612 589.142 742.755 590.566C739.925 591.978 736.485 590.84 735.056 588.019C733.626 585.197 734.742 581.751 737.554 580.303Z"/><path fill="#FAFAF9" d="M561.074 258.842L561.769 258.824C565.012 258.75 569.575 259.65 569.103 263.982C568.892 265.963 567.91 267.781 566.369 269.043C558.806 269.11 554.649 264.878 561.074 258.842Z"/><path fill="#FAFAF9" d="M637.779 629.254C638.784 629.575 639.692 629.971 640.669 630.369C643.37 633.337 642.239 635.394 639.738 637.978C635.172 636.493 634.588 632.656 637.779 629.254Z"/><path fill="#89D0D3" d="M965.296 499.65C977.269 497.84 988.462 506.019 990.376 517.975C992.289 529.931 984.206 541.194 972.267 543.211C960.18 545.252 948.747 537.049 946.81 524.946C944.873 512.842 953.176 501.482 965.296 499.65Z"/><path fill="#FAFAF9" d="M964.265 509.728C968.894 509.226 971.008 509.601 975.493 510.554C975.207 514.892 975.377 520.65 972.492 523.845C967.828 523.958 964.391 524.2 961.537 519.873C960.519 518.334 960.218 516.43 960.712 514.652C961.357 512.304 962.211 510.916 964.265 509.728Z"/><path fill="#89D0D3" d="M198.202 500.425C210.147 498.401 221.472 506.44 223.501 518.383C225.529 530.327 217.495 541.654 205.551 543.688C193.601 545.723 182.264 537.683 180.234 525.732C178.204 513.782 186.25 502.45 198.202 500.425Z"/><path fill="#FAFAF9" d="M202.191 509.806C208.264 510.074 211.512 511.59 209.499 519.184C208.616 522.513 206.989 523.27 203.97 524.682L203.679 524.637C196.523 523.593 192.804 518.437 197.339 511.329C198.191 509.994 200.578 509.963 202.191 509.806Z"/><path fill="#B0F3F1" d="M295.952 525.125C298.302 525.574 299.92 527.743 299.681 530.123C299.441 532.503 297.424 534.307 295.032 534.279C293.284 534.26 291.697 533.254 290.932 531.683C290.166 530.111 290.354 528.242 291.417 526.854C292.479 525.466 294.235 524.796 295.952 525.125Z"/></svg>